<?xml version="1.0" encoding="UTF-8" standalone="no"?><!DOCTYPE svg PUBLIC "-//W3C//DTD SVG 1.1//EN" "http://www.w3.org/Graphics/SVG/1.1/DTD/svg11.dtd"><svg width="100%" height="100%" viewBox="0 0 92692 14605" version="1.1" xmlns="http://www.w3.org/2000/svg" xmlns:xlink="http://www.w3.org/1999/xlink" xml:space="preserve" xmlns:serif="http://www.serif.com/" style="fill-rule:evenodd;clip-rule:evenodd;stroke-miterlimit:10;"><g><g id="Logo"><g id="DRK-Logo"><path id="Wortmarke_1_" d="M16080.2,1149.38l1519.1,0c913.263,0 1597.43,572.708 1597.43,1739.15c-0,1021.77 -521.405,1781.32 -1597.43,1781.32l-1519.1,-0l-0,-3520.47Zm774.583,2869.43l690.258,0c449.063,0 877.1,-277.271 877.1,-1054.9c0,-711.371 -247.187,-1163.49 -1015.78,-1163.49l-551.579,-0l0,2218.38Zm3342.6,-452.1c21.109,443.058 238.121,645.037 626.942,645.037c280.312,0 509.408,-171.808 551.579,-331.6l614.879,0c-195.904,602.867 -614.879,859.013 -1193.58,859.013c-804.775,-0 -1302.08,-551.579 -1302.08,-1341.22c-0,-765.625 527.483,-1347.29 1302.08,-1347.29c868.054,-0 1287.03,729.375 1238.78,1513.02l-1838.61,0l0,3.038l0.004,-0Zm1139.33,-443.071c-63.3,-355.696 -217.012,-542.537 -557.587,-542.537c-443.071,-0 -572.709,343.595 -581.738,542.537l1139.33,0Zm3505.42,1546.21l-666.163,-0l0,-355.675l-15.037,-0c-177.813,286.387 -482.292,424.983 -777.638,424.983c-744.496,0 -931.354,-418.908 -931.354,-1048.91l0,-1567.28l699.288,-0l-0,1440.69c-0,418.975 123.558,626.946 449.079,626.946c379.775,0 542.537,-211.008 542.537,-729.375l0,-1338.27l699.288,-0l-0,2546.88Zm1446.75,-2546.88l515.417,-0l-0,467.171l-512.45,-0l-0,1262.87c-0,238.142 60.329,295.434 295.433,295.434c75.296,-0 141.633,-6.075 217.017,-21.13l-0,548.542c-117.555,21.129 -271.267,24.167 -409.95,24.167c-428.021,-0 -804.755,-99.463 -804.755,-605.834l0,-1504.05l-424.983,0.001l0,-467.171l424.983,-0l0,-765.625l699.288,-0l0,765.625Zm1437.73,1720.99c6.008,304.479 262.221,428.038 536.458,428.038c201.963,-0 458.196,-78.35 458.196,-325.521c0,-211.025 -289.358,-286.321 -792.762,-394.825c-403.855,-87.467 -807.725,-232.137 -807.725,-681.217c-0,-651.041 563.591,-819.791 1109.17,-819.791c557.571,-0 1070.02,186.841 1124.27,813.804l-666.162,-0c-21.042,-271.271 -226.059,-343.613 -479.238,-343.613c-156.683,0 -388.817,30.088 -388.817,238.055c-0.004,250.225 394.892,286.391 792.759,379.775c409.862,93.47 807.725,241.179 807.725,714.341c-0,669.129 -581.684,886.146 -1163.42,886.146c-590.779,0 -1169.48,-223.021 -1199.58,-898.142l669.133,0l-0,2.95Zm3806.79,-825.8c-45.208,-286.387 -226.058,-440.104 -518.454,-440.104c-449.062,0 -596.787,455.142 -596.787,828.925c-0,364.654 141.65,804.759 581.754,804.759c325.521,-0.001 512.358,-207.971 557.567,-518.459l675.141,0c-87.396,675.142 -557.587,1045.87 -1226.72,1045.87c-768.575,0 -1287.03,-542.538 -1287.03,-1308.09c0,-792.675 473.229,-1380.42 1302.08,-1380.42c602.862,-0 1154.44,316.475 1199.65,967.516l-687.205,0Zm1094.12,-1868.78l699.217,-0l-0,1326.25l15.104,-0c177.813,-286.388 482.225,-424.983 744.446,-424.983c744.496,-0 931.354,418.908 931.354,1048.89l0,1567.28l-699.221,0l0,-1440.67c0,-418.975 -123.629,-626.962 -449.15,-626.962c-379.771,-0 -542.533,211.025 -542.533,729.391l-0,1335.28l-699.217,0l0,-3514.46Zm3466.15,2417.31c18.071,443.075 238.125,645.054 626.942,645.054c280.312,0.001 506.375,-171.808 551.583,-331.599l617.917,-0c-195.975,602.866 -617.917,859.012 -1193.58,859.012c-804.755,0 -1302.08,-551.579 -1302.08,-1341.22c0,-765.625 527.413,-1347.29 1302.08,-1347.29c868.058,-0 1286.96,729.375 1238.79,1513.02l-1841.65,-0l0,3.037l0,-0.017Zm1139.32,-443.07c-63.296,-355.696 -217.013,-542.538 -557.588,-542.538c-443.07,0 -572.687,343.596 -581.733,542.538l1139.32,-0Zm1657.76,720.329c6.005,304.479 262.221,428.037 536.525,428.037c201.913,0 458.125,-78.35 458.125,-325.521c0,-211.025 -292.395,-286.32 -792.67,-394.825c-403.942,-87.466 -807.813,-232.137 -807.813,-681.216c0,-651.042 560.625,-819.792 1109.17,-819.792c557.654,0 1070.02,186.842 1124.27,813.8l-666.08,0c-18.087,-271.267 -226.058,-343.608 -479.25,-343.608c-156.754,-0 -388.804,30.087 -388.804,238.054c0,250.225 394.809,286.387 792.675,379.775c409.929,93.471 807.796,241.179 807.796,714.342c0,669.129 -581.738,886.145 -1163.49,886.145c-590.712,0 -1169.41,-223.021 -1199.57,-898.146l669.116,0l0,2.955Zm-22810.6,6531.54l774.583,0l0,1458.84l1374.43,-1458.84l967.517,0l-1374.41,1389.46l1510.05,2131.01l-970.554,0l-1060.92,-1582.4l-443.075,449.079l-0,1133.32l-774.65,0l-0,-3520.47l-2.971,0Zm3487.26,973.525l666.092,-0.004l-0,473.234l9.046,-0c129.637,-319.517 473.229,-542.538 813.804,-542.538c48.246,0 108.504,9.046 153.712,24.1l0,651.038c-63.295,-15.05 -168.766,-24.096 -250.137,-24.096c-512.379,-0 -690.263,370.746 -690.263,819.808l0,1148.37l-699.216,-0l-0,-2549.91l-3.038,0Zm2408.28,1443.8c21.059,443.055 238.075,644.967 626.875,644.967c280.313,0 509.413,-171.808 551.58,-331.529l617.916,-0c-195.9,602.796 -617.916,859.012 -1193.58,859.012c-804.758,0 -1302.08,-551.583 -1302.08,-1341.29c-0,-765.554 527.483,-1347.31 1302.08,-1347.31c868.054,-0 1287.03,729.462 1238.78,1513.11l-1841.58,-0l0,3.037Zm1136.29,-443.07c-63.3,-355.696 -217.017,-542.538 -557.588,-542.538c-443.058,0 -572.691,346.563 -581.737,542.538l1139.33,-0Zm3463.18,1546.21l-666.075,0l-0,-355.675l-15.121,0c-177.812,286.3 -482.208,424.983 -777.642,424.983c-744.425,0 -931.354,-418.979 -931.354,-1048.91l0,-1567.34l699.288,0l-0,1440.76c-0,418.975 123.562,626.946 449.083,626.946c379.771,-0 542.533,-211.009 542.533,-729.463l0,-1335.21l699.288,-0l-0,2543.9Zm382.812,-527.483l1326.18,-1495.02l-1226.72,0l-0,-527.412l2149.03,-0l0,527.412l-1326.18,1495.02l1419.64,-0l0,527.483l-2341.95,0l0,-527.483Zm-10880.8,-7604.54l1901.91,0c629.913,0 1030.82,440.033 1030.82,970.554c0,412.917 -168.837,723.388 -557.654,883.109l-0,9.045c379.771,99.463 488.279,467.15 512.446,822.846c15.033,223.004 9.029,635.992 147.637,831.875l-774.6,0c-93.454,-223.021 -84.408,-563.646 -123.558,-843.958c-54.254,-370.729 -195.954,-533.488 -587.742,-533.488l-774.671,0l0,1374.41l-774.583,-0l0,-3514.39Zm777.621,1591.44l846.946,-0c346.629,-0 533.487,-147.729 533.487,-503.334c0,-340.645 -186.858,-488.283 -533.487,-488.283l-846.946,0l-0,991.617Zm3885.14,-690.263c804.759,0 1320.16,533.509 1320.16,1347.31c-0,807.795 -518.367,1341.29 -1320.16,1341.29c-798.679,0 -1317.13,-533.492 -1317.13,-1341.29c0,-813.8 518.438,-1347.31 1317.13,-1347.31Zm0,2161.11c479.238,-0 620.938,-409.879 620.938,-813.804c-0,-409.875 -141.7,-819.809 -620.938,-819.809c-473.158,0 -614.875,409.929 -614.875,819.809c0,403.925 141.717,813.804 614.875,813.804Zm2649.38,-2091.74l515.4,0l0,467.171l-512.358,0l0,1262.86c0,238.145 60.258,295.437 295.346,295.437c75.383,0 141.717,-6.079 217.012,-21.129l0,548.542c-117.533,21.129 -271.266,24.166 -409.858,24.166c-428.021,0 -804.758,-99.462 -804.758,-605.833l-0,-1504.05l-424.984,0l0,-467.171l424.984,0l-0,-765.625l699.216,0l0,765.625Zm1443.79,1443.73c21.058,443.054 238.071,645.033 626.892,645.033c280.312,-0 506.354,-171.804 551.579,-331.596l617.9,0c-195.888,602.863 -617.9,859.008 -1193.58,859.008c-804.759,0 -1302.08,-551.579 -1302.08,-1341.21c0,-765.625 527.5,-1347.29 1302.08,-1347.29c868.054,0 1287.05,729.375 1238.78,1513.02l-1841.58,0l-0,3.038Zm1139.32,-443.075c-63.279,-355.692 -217.013,-542.534 -557.638,-542.534c-443.075,0 -572.637,346.634 -581.683,542.534l1139.32,-0Zm1657.71,720.333c6.079,304.479 262.225,428.037 536.529,428.037c201.963,0 458.109,-78.35 458.109,-325.52c-0,-211.025 -292.309,-286.321 -792.675,-394.83c-403.855,-87.462 -807.796,-232.133 -807.796,-681.212c-0,-651.042 560.625,-819.792 1109.24,-819.792c557.571,0 1069.95,186.838 1124.2,813.8l-666.091,0c-18.092,-271.266 -226.059,-343.608 -479.238,-343.608c-156.754,-0 -388.821,30.083 -388.821,238.054c0,250.225 394.829,286.388 792.675,379.775c409.95,93.471 807.813,241.179 807.813,714.338c-0,672.17 -581.754,886.145 -1163.42,886.145c-590.779,0 -1169.48,-223.02 -1199.65,-898.141l669.129,-0l0,2.954Z" style="fill:#1d1d1b;fill-rule:nonzero;"/><path id="Bildmarke_1_" d="M12749.6,5423.38l0,4249.88l-4249.88,0l0,4225.71l-4249.83,0l0,-4249.88l-4249.88,0l0,-4249.83l4249.88,-0l0,-4249.88l4249.83,-0l0,4274l4249.88,-0Z" style="fill:#e60005;fill-rule:nonzero;"/></g></g><g id="Absenderkennung"><g><path d="M50166.2,1152.41c464.2,-0 819.808,117.554 1073,355.695c250.204,235.088 376.804,596.788 376.804,1078.99c0,253.179 -27.137,476.267 -84.429,672.154c-57.291,195.9 -144.666,358.663 -262.221,494.288c-117.55,132.675 -268.229,235.104 -452.116,307.429c-183.871,69.375 -400.888,105.558 -651.042,105.558l-1033.85,0l-0,-3014.12l1033.85,0Zm33.142,2673.47c45.208,0 102.5,-2.966 168.837,-9.041c66.25,-6.009 138.592,-24.1 213.975,-51.217c75.363,-27.137 150.675,-66.338 226.042,-114.512c75.383,-51.288 141.65,-120.592 201.979,-207.971c60.258,-87.467 108.508,-195.971 144.671,-325.521c36.162,-129.633 57.221,-289.358 57.221,-476.267c-0,-180.85 -18.092,-340.575 -51.217,-482.221c-36.162,-141.704 -93.454,-262.225 -171.804,-361.683c-81.371,-99.462 -183.871,-174.846 -310.467,-229.1c-126.6,-51.217 -283.283,-78.333 -467.171,-78.333l-675.125,-0l0.004,2338.91l663.055,0l-0,-3.042Z" style="fill:#1d1d1b;fill-rule:nonzero;"/><path d="M53520.8,1152.41c286.3,-0 512.359,69.304 672.15,211.008c162.763,141.65 241.113,334.567 241.113,578.712c-0,183.804 -42.171,343.596 -123.558,482.209c-84.413,138.662 -217.017,232.116 -397.867,283.333l-0,9.042c87.396,18.091 159.725,45.208 213.975,84.429c54.254,39.133 99.479,87.379 129.637,141.633c33.125,54.25 57.221,114.513 72.342,183.888c15.037,66.25 27.121,138.591 36.167,210.937c6.004,72.325 9.046,147.709 12.012,223.092c3.038,75.292 9.046,150.675 21.113,223c12.083,72.346 27.133,141.65 48.262,207.987c21.042,66.338 51.217,123.542 93.388,174.846l-446.042,0c-27.121,-30.175 -48.25,-72.346 -57.296,-126.6c-9.041,-54.254 -15.05,-114.583 -18.087,-180.85c-3.038,-66.337 -5.992,-138.662 -9.029,-214.046c-3.038,-75.296 -12.084,-150.675 -24.096,-223.021c-12.084,-72.325 -24.167,-141.629 -42.242,-207.966c-18.088,-66.338 -45.208,-123.559 -81.387,-171.809c-36.163,-48.245 -84.342,-87.375 -144.671,-117.55c-60.259,-30.158 -138.592,-45.208 -235.104,-45.208l-979.53,0l0,1287.05l-400.887,0l-0,-3014.12l1419.64,0Zm84.409,1365.38c84.341,-15.054 156.683,-42.171 219.983,-81.392c63.296,-42.167 114.583,-96.421 150.746,-165.796c39.133,-69.287 57.221,-159.725 57.221,-268.229c-0,-150.679 -42.171,-274.304 -126.596,-370.729c-84.342,-96.425 -219.967,-144.671 -409.863,-144.671l-994.65,0l0,1051.95l834.859,-0c96.496,-0 183.891,-6.079 268.3,-21.129Z" style="fill:#1d1d1b;fill-rule:nonzero;"/><path d="M55395.8,1149.38l0,1504.05l1528.14,-1501.01l518.371,0l-1268.88,1214.7l1320.16,1796.37l-506.354,-0.001l-1088.11,-1522.15l-503.334,467.237l0,1054.91l-400.904,-0l0,-3014.11l400.904,0Z" style="fill:#1d1d1b;fill-rule:nonzero;"/><rect x="57689.6" y="2822.19" width="1220.71" height="337.604" style="fill:#1d1d1b;"/><path d="M59850.8,1149.38l0,1504.05l1528.14,-1501.01l518.438,0l-1268.96,1214.7l1320.17,1796.37l-506.354,-0.001l-1088.11,-1522.15l-503.334,467.237l0,1054.91l-400.904,-0l0,-3014.11l400.904,0Z" style="fill:#1d1d1b;fill-rule:nonzero;"/><path d="M62530,1981.27l-0.017,461.145l9.046,0c87.396,-177.795 192.863,-307.429 319.442,-391.77c126.6,-84.425 286.391,-123.63 482.291,-117.55l0.001,379.77c-144.688,0.001 -265.275,21.042 -367.709,60.263c-102.5,39.2 -183.871,96.425 -244.129,171.788c-60.329,75.383 -105.537,168.766 -135.642,277.275c-27.12,108.508 -42.241,232.133 -42.241,373.766l-0,970.575l-358.646,0l-0,-2182.22l337.604,0l0,-3.037Z" style="fill:#1d1d1b;fill-rule:nonzero;"/><path d="M65080,4024.81c-162.775,123.63 -367.775,186.93 -614.875,186.93c-174.846,-0.001 -325.521,-27.138 -452.121,-84.43c-126.596,-57.291 -235.104,-135.625 -322.55,-235.087c-87.379,-102.517 -153.716,-223.021 -195.887,-361.7c-42.171,-138.663 -69.304,-295.346 -75.379,-461.146c-0,-165.8 24.166,-316.475 75.379,-455.158c51.216,-138.592 120.591,-256.146 213.975,-358.646c90.416,-102.5 198.925,-180.85 325.521,-235.104c126.583,-57.292 262.225,-84.409 412.97,-84.409c192.863,0 355.625,39.2 482.204,120.575c126.596,81.388 232.138,180.85 307.451,304.409c78.4,123.612 129.616,259.254 159.791,403.925c30.084,147.654 42.167,286.316 36.163,418.921l-1633.68,-0c-2.966,96.495 9.046,186.912 33.196,271.266c24.096,84.413 66.267,162.763 123.559,229.084c57.291,66.333 126.6,117.55 213.975,156.77c87.466,39.13 189.895,60.242 307.45,60.242c150.745,0 277.325,-36.162 373.766,-105.471c96.425,-69.354 159.721,-177.862 192.917,-319.512l355.625,-0c-51.217,241.112 -156.683,424.983 -319.446,548.541Zm-87.462,-1401.55c-33.125,-75.313 -75.296,-141.63 -129.55,-195.884c-54.255,-54.254 -120.592,-99.479 -192.934,-129.637c-75.383,-33.125 -156.754,-48.175 -247.171,-48.175c-93.404,-0 -177.812,15.033 -250.154,48.175c-72.329,33.195 -138.666,75.383 -192.916,132.658c-54.255,57.221 -96.425,120.521 -126.6,195.9c-30.088,75.383 -48.175,153.717 -54.255,238.146l1253.91,-0c-9.046,-84.429 -27.138,-165.817 -60.329,-241.184Z" style="fill:#1d1d1b;fill-rule:nonzero;"/><path d="M65821.7,1589.48l-0,-440.104l358.646,0l-0,440.104l-358.646,0Zm358.646,391.788l-0,2182.22l-358.646,-0.001l-0,-2182.22l358.646,-0Z" style="fill:#1d1d1b;fill-rule:nonzero;"/><path d="M67012.1,3675.21c33.125,54.255 78.334,99.463 132.588,129.617c54.25,33.142 117.55,54.254 186.925,69.308c69.304,15.05 138.596,21.125 213.975,21.125c57.291,0 114.516,-3.037 177.812,-12.083c63.284,-9.042 117.538,-24.096 171.788,-45.225c54.254,-21.108 96.512,-54.254 129.637,-99.463c33.125,-42.166 51.217,-99.458 51.217,-165.795c-0,-93.388 -36.167,-162.763 -105.471,-210.938c-69.304,-48.246 -156.754,-87.45 -265.258,-114.583c-105.471,-30.088 -219.984,-57.204 -343.613,-81.371c-123.541,-24.1 -238.054,-57.225 -343.596,-102.433c-105.466,-42.238 -192.862,-105.538 -265.187,-183.888c-69.375,-78.333 -105.558,-189.879 -105.558,-328.558c-0,-108.509 24.166,-204.934 75.383,-283.284c48.246,-78.399 111.546,-141.699 189.896,-192.916c78.333,-48.246 165.8,-84.408 262.221,-108.504c96.425,-24.084 192.916,-36.167 289.341,-36.167c123.559,0 238.142,9.029 340.571,30.158c105.542,21.059 195.975,57.221 277.346,108.509c81.387,51.212 144.671,123.558 192.846,210.937c48.266,87.463 75.383,198.938 84.429,331.596l-358.646,0c-6.079,-69.375 -24.167,-129.617 -54.254,-174.846c-30.175,-45.208 -69.375,-84.408 -117.554,-111.541c-48.246,-27.121 -99.459,-48.18 -159.792,-60.263c-60.258,-12.067 -114.512,-18.071 -174.771,-18.071c-54.254,0 -108.508,3.038 -162.762,12.084c-54.254,9.041 -105.538,24.079 -150.746,45.208c-45.208,21.042 -81.388,48.175 -108.508,84.337c-27.134,36.184 -42.171,81.392 -42.171,138.684c-0,63.296 21.112,114.512 66.321,153.712c42.187,42.171 99.462,75.384 165.729,102.5c66.337,27.138 144.687,48.179 229.096,66.267c84.429,18.075 168.77,36.167 253.179,57.292c90.433,21.112 177.812,42.17 265.279,72.329c87.375,30.171 162.758,66.337 229.008,111.546c66.338,45.225 120.592,105.466 159.792,174.77c39.15,69.375 60.262,156.755 60.262,262.225c0,132.671 -27.12,241.18 -81.375,328.559c-54.25,87.396 -126.595,156.754 -213.975,211.008c-87.462,54.25 -186.925,90.433 -298.4,111.475c-111.545,21.129 -220.054,30.171 -331.6,30.171c-120.504,-0 -235.087,-12.083 -346.562,-39.217c-108.504,-24.079 -207.967,-66.25 -292.396,-123.541c-84.408,-57.292 -150.675,-132.605 -201.962,-229.096c-51.213,-93.388 -78.35,-207.971 -84.355,-343.613l358.663,0c-9.046,81.388 9.025,147.725 45.208,201.979Z" style="fill:#1d1d1b;fill-rule:nonzero;"/><path d="M69444.6,4163.49l-810.766,-2182.22l400.833,-0l611.892,1817.48l9.046,0l593.75,-1817.48l376.737,-0l-798.679,2182.22l-382.813,-0.001Z" style="fill:#1d1d1b;fill-rule:nonzero;"/><path d="M72500.8,4024.81c-162.762,123.63 -367.708,186.93 -614.879,186.93c-174.846,-0.001 -325.521,-27.138 -452.121,-84.43c-126.579,-57.291 -235.083,-135.625 -322.479,-235.087c-87.45,-102.517 -153.716,-223.021 -195.958,-361.7c-42.167,-138.663 -69.304,-295.346 -75.313,-461.146c0,-165.8 24.1,-316.475 75.313,-455.158c51.287,-138.592 120.592,-256.146 214.046,-358.646c90.416,-102.5 198.925,-180.85 325.521,-235.104c126.6,-57.292 262.225,-84.409 412.9,-84.409c192.933,0 355.695,39.2 482.275,120.575c126.595,81.388 232.066,180.85 307.445,304.409c78.334,123.612 129.55,259.254 159.725,403.925c30.155,147.654 42.171,286.316 36.163,418.921l-1633.61,-0c-3.037,96.495 9.046,186.912 33.142,271.266c24.083,84.413 66.338,162.763 123.542,229.084c57.291,66.333 126.6,117.55 214.062,156.77c87.379,39.13 189.879,60.242 307.434,60.242c150.675,0 277.275,-36.162 373.695,-105.471c96.496,-69.354 159.792,-177.862 192.917,-319.512l355.696,-0c-51.283,241.112 -156.754,424.983 -319.513,548.541Zm-87.395,-1401.55c-33.196,-75.312 -75.367,-141.629 -129.621,-195.883c-54.254,-54.254 -120.588,-99.479 -192.934,-129.637c-75.295,-33.125 -156.683,-48.175 -247.1,-48.175c-93.454,-0 -177.883,15.033 -250.225,48.175c-72.329,33.195 -138.595,75.383 -192.85,132.658c-54.25,57.221 -96.491,120.521 -126.595,195.9c-30.155,75.383 -48.246,153.717 -54.255,238.146l1253.84,-0c-9.046,-84.429 -27.117,-165.817 -60.258,-241.184Z" style="fill:#1d1d1b;fill-rule:nonzero;"/><path d="M73546.7,1981.27l-0,461.145l9.029,0c87.467,-177.795 192.933,-307.429 319.533,-391.77c126.579,-84.425 286.3,-123.63 482.271,-117.55l0,379.77c-144.687,0.001 -265.258,21.042 -367.775,60.263c-102.433,39.2 -183.804,96.425 -244.133,171.788c-60.259,75.383 -105.467,168.766 -135.642,277.275c-27.117,108.508 -42.171,232.133 -42.171,373.766l0,970.575l-358.646,0l0,-2182.22l337.534,0l-0,-3.037Z" style="fill:#1d1d1b;fill-rule:nonzero;"/><path d="M74999.2,1152.41l-0,1127.24l9.045,0c60.263,-120.504 150.68,-207.971 277.275,-265.192c126.596,-54.254 265.263,-81.37 418.976,-81.37c168.766,-0 316.495,30.083 440.033,93.383c126.6,63.3 229.1,144.671 313.442,250.208c84.424,105.471 144.687,226.059 186.925,364.671c42.17,138.663 63.3,283.333 63.3,440.104c-0,153.717 -21.13,301.354 -60.334,440.017c-39.129,138.683 -102.429,259.204 -186.854,361.7c-84.412,102.504 -186.842,183.875 -313.437,241.096c-126.584,60.329 -271.271,87.467 -437.067,87.467c-54.254,-0 -114.517,-6.08 -177.796,-18.092c-66.337,-12.083 -132.675,-30.154 -195.971,-54.254c-63.3,-24.167 -126.6,-60.329 -183.804,-102.5c-57.292,-45.209 -105.554,-96.421 -144.687,-162.759l-9.046,0l-0,292.38l-358.713,-0l0,-3014.1l358.713,-0Zm1290.02,1603.51c-27.138,-96.496 -66.338,-183.871 -123.563,-259.254c-54.25,-75.296 -126.596,-135.625 -211.004,-180.85c-84.429,-45.209 -186.858,-66.25 -301.442,-66.25c-120.504,-0 -223.021,24.079 -307.429,72.325c-84.342,48.179 -153.717,111.475 -207.971,186.858c-54.254,78.333 -93.383,165.8 -114.512,265.263c-24.1,99.458 -36.163,198.92 -36.163,298.4c0,105.47 12.063,210.937 39.2,310.4c24.079,99.462 66.267,186.908 120.521,265.262c54.254,75.379 126.579,138.663 214.046,183.888c87.379,45.208 192.846,69.287 316.475,69.287c123.558,0 226.058,-24.079 310.4,-72.325c81.387,-48.267 150.746,-111.546 198.921,-189.896c51.304,-78.333 87.466,-168.766 108.508,-271.266c24.167,-102.5 33.213,-204.934 33.213,-313.438c-0,-102.5 -15.121,-201.962 -39.205,-298.404l0.005,-0Z" style="fill:#1d1d1b;fill-rule:nonzero;"/><path d="M79062.5,4154.45c-63.3,36.162 -147.637,54.25 -256.146,54.25c-93.454,-0 -165.8,-27.133 -223.091,-78.35c-54.25,-51.283 -81.388,-138.663 -81.388,-256.213c-99.462,117.55 -213.975,201.959 -343.596,256.213c-129.562,51.217 -271.266,78.35 -424.979,78.35c-99.479,-0 -192.867,-12.083 -280.312,-33.142c-87.396,-21.108 -165.73,-57.291 -229.03,-105.537c-63.3,-48.175 -114.583,-111.475 -153.716,-186.842c-39.2,-78.35 -57.292,-171.804 -57.292,-280.312c0,-123.559 21.129,-226.059 63.3,-304.409c42.171,-78.404 96.425,-141.7 165.8,-192.916c69.288,-48.246 147.638,-87.38 235.083,-111.546c87.396,-24.096 180.855,-45.209 271.271,-63.296c99.479,-21.042 192.863,-33.125 280.313,-45.208c87.396,-12.017 165.729,-24.1 235.104,-42.171c66.267,-18.092 120.521,-45.209 159.721,-81.392c39.2,-36.162 60.258,-87.375 60.258,-153.712c0,-78.334 -15.05,-141.634 -45.208,-189.88c-30.104,-48.262 -66.267,-84.429 -114.513,-108.508c-45.208,-24.096 -99.462,-42.188 -156.754,-51.213c-57.221,-9.045 -114.512,-12.083 -171.804,-12.083c-150.679,0 -277.275,30.154 -379.775,87.375c-102.429,57.292 -156.683,165.8 -165.729,325.521l-358.734,0c6.08,-135.625 33.213,-250.137 84.429,-340.571c51.217,-93.454 117.55,-168.75 201.963,-226.041c84.358,-57.292 180.85,-99.48 289.358,-123.559c108.505,-24.166 223.017,-39.204 346.563,-39.204c99.479,0 195.971,5.992 292.396,21.113c96.421,15.054 183.887,42.17 265.258,87.395c78.35,42.171 141.65,105.471 189.896,183.871c48.179,78.35 72.325,180.85 72.325,307.45l-0,1121.23c-0,84.337 6.008,144.666 15.054,183.816c9.046,39.204 42.171,60.329 99.463,60.329c30.17,0 66.337,-6.075 108.504,-18.087l-0,277.275l6.008,-0Zm-581.667,-1118.21c-45.208,33.142 -105.537,57.221 -177.883,72.342c-72.342,15.054 -150.675,27.138 -229.025,39.133c-81.371,9.046 -162.762,21.13 -244.133,33.213c-81.388,11.996 -153.717,33.125 -220.05,60.258c-66.338,27.121 -117.554,69.288 -159.725,120.575c-39.2,51.213 -60.329,123.559 -60.329,210.938c-0,57.291 12.083,108.504 36.162,147.725c24.167,39.2 54.254,72.325 93.471,99.462c39.204,27.117 81.375,42.171 132.587,54.254c51.288,12.084 105.538,18.071 159.792,18.071c117.554,0 219.983,-15.033 304.413,-48.246c84.408,-33.125 153.712,-72.325 207.966,-120.504c54.254,-48.262 93.454,-102.517 117.554,-159.808c24.08,-57.204 39.2,-111.459 39.2,-162.763l0,-364.65Z" style="fill:#1d1d1b;fill-rule:nonzero;"/><path d="M79734.6,1981.27l0,346.633l9.046,0c150.675,-265.262 385.779,-397.85 708.333,-397.85c144.667,0 262.221,18.075 358.646,60.246c96.438,42.254 171.805,93.471 232.063,165.796c60.333,69.308 99.462,153.733 123.629,250.158c24.079,96.492 36.163,205 36.163,322.55l-0,1434.69l-358.713,-0.001l0,-1476.92c0,-135.642 -39.133,-241.113 -117.554,-319.446c-78.35,-78.421 -186.859,-117.55 -325.521,-117.55c-108.504,-0 -204.929,18.071 -283.279,51.212c-81.371,33.125 -147.709,81.375 -201.963,144.671c-54.254,63.3 -93.454,135.642 -120.591,217.017c-27.117,84.425 -39.129,174.841 -39.129,271.266l-0,1232.8l-358.717,0l-0,-2182.22l337.587,0l0,-3.037Z" style="fill:#1d1d1b;fill-rule:nonzero;"/><path d="M83333.3,4166.53l0,-298.404l-9.045,0c-60.259,120.521 -150.675,207.967 -277.275,262.221c-126.58,54.254 -265.259,81.391 -418.975,81.391c-168.767,0.001 -316.475,-30.174 -440.034,-93.474c-126.596,-63.28 -229.096,-144.671 -313.508,-250.138c-84.358,-105.537 -144.688,-226.058 -186.858,-361.683c-42.167,-138.684 -63.296,-283.35 -63.296,-440.104c-0,-153.734 21.129,-301.371 60.258,-440.038c39.221,-138.679 102.5,-259.183 186.929,-361.7c84.338,-102.5 186.838,-183.871 313.438,-244.133c126.596,-60.259 271.266,-90.417 437.066,-90.417c57.221,0 117.55,5.992 180.85,18.075c63.296,12.083 129.546,30.175 192.846,57.292c63.3,27.133 126.596,63.3 183.888,105.466c57.291,45.209 105.47,96.425 144.67,162.763l9.046,-0l0,-1121.23l358.646,-0l0,3014.1l-358.646,0l0,0.021Zm-1290,-777.625c27.117,96.425 66.25,183.804 123.542,259.188c54.254,75.379 126.596,135.625 211.025,180.85c84.338,45.208 186.837,66.316 301.354,66.316c120.588,0 223.088,-24.145 307.429,-72.325c84.429,-48.245 153.717,-111.545 207.971,-186.925c54.25,-78.333 93.471,-165.729 114.583,-265.191c24.096,-99.463 36.18,-198.925 36.18,-298.388c-0,-105.554 -12.084,-211.025 -39.221,-310.483c-24.079,-99.463 -66.317,-186.842 -120.571,-265.263c-54.254,-75.295 -126.596,-138.591 -213.975,-183.8c-87.396,-45.229 -192.933,-69.375 -316.496,-69.375c-120.571,0 -223,24.146 -307.429,72.325c-84.408,48.263 -150.675,111.546 -201.962,189.896c-51.213,78.421 -87.396,168.838 -108.505,271.267c-24.1,102.5 -33.141,205 -33.141,313.508c-0,102.429 12.083,201.892 39.216,298.4Z" style="fill:#1d1d1b;fill-rule:nonzero;"/><path d="M50452.9,5974.96c304.458,0 533.487,78.35 690.241,235.104c156.771,156.684 235.105,373.696 235.105,657.046c-0.001,280.313 -78.334,500.367 -235.105,657.05c-156.754,156.755 -385.762,235.088 -690.241,232.117l-919.271,-0l-0,1232.73l-400.904,0l-0,-3014.04l1320.17,0Zm-135.646,1440.69c229.1,3.037 394.9,-42.188 500.367,-138.608c105.47,-96.496 159.72,-232.138 159.72,-412.971c0,-180.85 -51.212,-316.475 -159.72,-412.917c-105.467,-93.454 -271.267,-141.633 -500.346,-141.633l-783.646,-0l-0,1106.13l783.646,-0l-0.021,-0Z" style="fill:#1d1d1b;fill-rule:nonzero;"/><path d="M51589.2,7120.29l-0,-316.475l367.691,-0l0,-325.521c0,-177.813 51.217,-310.488 153.717,-403.871c102.517,-90.421 253.192,-138.667 449.079,-138.667c33.213,0 72.342,3.038 117.55,9.046c42.242,5.992 81.392,15.038 114.584,24.079l-0.001,313.509c-30.17,-12.067 -63.295,-18.075 -102.5,-24.15c-36.179,-2.967 -69.304,-6.009 -102.5,-6.009c-87.395,0 -153.733,18.092 -201.908,51.217c-48.246,33.212 -72.325,99.462 -72.325,192.933l0,304.392l421.942,0l-0,316.479l-421.942,0l0,1865.75l-358.733,0l-0,-1865.75l-364.654,0l-0,3.038Z" style="fill:#1d1d1b;fill-rule:nonzero;"/><path d="M53005.4,7448.88c45.208,-138.679 111.546,-259.254 201.962,-361.683c90.433,-102.5 201.913,-183.888 334.567,-241.184c132.604,-60.258 283.279,-87.375 455.087,-87.375c174.842,0 325.521,30.155 458.175,87.375c129.567,60.334 241.113,138.684 331.529,241.184c90.417,102.429 156.755,223.021 201.963,361.683c45.225,138.596 66.267,289.358 66.267,449.079c-0,159.721 -24.08,310.471 -66.25,446.096c-45.225,138.608 -111.563,259.2 -201.98,361.7c-90.416,102.429 -201.962,183.8 -331.529,241.092c-129.616,57.291 -283.35,87.396 -458.175,87.396c-171.808,-0.001 -322.483,-30.105 -455.087,-87.396c-132.654,-57.292 -244.134,-138.663 -334.567,-241.092c-90.417,-102.5 -156.754,-223.092 -201.962,-361.7c-45.209,-138.667 -66.338,-286.375 -66.338,-446.096c0.004,-159.721 21.129,-310.487 66.338,-449.079Zm364.725,801.717c36.179,102.5 84.354,186.858 144.687,256.233c60.259,69.288 135.625,120.504 217.013,159.725c81.371,39.2 171.804,54.25 265.191,54.25c93.455,0 180.834,-18.087 265.259,-54.25c84.412,-36.183 156.754,-90.438 217.016,-159.725c63.296,-69.375 111.542,-153.733 144.667,-256.233c36.183,-102.5 54.254,-220.05 54.254,-352.638c0,-132.604 -18.071,-250.154 -54.254,-352.654c-36.162,-102.5 -84.408,-189.879 -144.667,-259.188c-63.3,-69.374 -135.645,-123.624 -217.016,-159.791c-84.425,-36.179 -171.804,-54.25 -265.259,-54.25c-93.387,-0 -180.85,18.071 -265.191,54.25c-84.429,36.167 -156.754,90.417 -217.013,159.792c-63.3,69.308 -111.546,156.687 -144.687,259.187c-36.167,102.5 -54.255,220.05 -54.255,352.654c2.967,132.588 21.059,250.138 54.255,352.638Z" style="fill:#1d1d1b;fill-rule:nonzero;"/><path d="M55802.9,6803.83l-0.021,461.146l9.046,0c87.396,-177.796 192.866,-307.433 319.446,-391.858c126.595,-84.342 286.387,-123.542 482.291,-117.534l0,379.771c-144.687,0 -265.279,21.113 -367.708,60.334c-102.5,39.129 -183.871,96.421 -244.133,171.787c-60.33,75.313 -105.538,168.767 -135.642,277.275c-27.117,108.504 -42.238,232.063 -42.238,373.767l0,970.483l-358.646,0l0,-2182.13l337.605,-0l-0,-3.038Z" style="fill:#1d1d1b;fill-rule:nonzero;"/><path d="M58024.2,7120.29l-1232.8,-0l-0,-316.475l1696.98,-0l0,244.129l-1332.26,1621.6l1392.52,-0l0,316.492l-1838.61,-0.001l0,-274.304l1314.15,-1591.44l0.017,-0Z" style="fill:#1d1d1b;fill-rule:nonzero;"/><path d="M59268.8,5974.96l0,1151.34l9.025,-0.004c27.138,-66.267 66.338,-123.559 117.554,-171.804c51.284,-45.209 108.508,-84.342 171.804,-114.513c63.3,-30.158 129.638,-51.217 198.925,-66.337c69.375,-15.034 135.642,-21.042 201.98,-21.042c144.67,-0 262.22,18.092 358.645,60.258c96.492,42.171 171.805,93.459 232.134,165.8c60.262,69.288 99.462,153.717 123.541,250.138c24.1,96.425 36.184,204.933 36.184,322.483l-0,1434.76l-358.663,0l0,-1476.93c0,-135.641 -39.204,-241.108 -117.537,-319.512c-78.421,-78.35 -186.925,-117.55 -325.521,-117.55c-108.504,-0 -205.017,18.071 -283.35,51.283c-81.388,33.125 -147.725,81.388 -201.979,144.671c-54.255,63.3 -93.384,135.642 -120.505,217.012c-27.133,84.359 -39.216,174.775 -39.216,271.267l-0,1232.71l-358.646,0l-0,-3014.03l355.625,0Z" style="fill:#1d1d1b;fill-rule:nonzero;"/><path d="M62801.2,8847.38c-162.775,123.558 -367.775,186.854 -614.875,186.854c-174.846,0 -325.521,-27.133 -452.121,-84.354c-126.596,-57.292 -235.104,-135.625 -322.55,-235.087c-87.379,-102.501 -153.716,-223.092 -195.887,-361.705c-42.171,-138.662 -69.304,-295.416 -75.379,-461.145c-0,-165.796 24.166,-319.513 75.379,-455.155c51.216,-138.662 120.591,-256.216 213.975,-358.646c90.416,-102.499 198.925,-180.85 325.52,-235.104c126.584,-57.291 262.226,-84.408 412.971,-84.408c192.863,0 355.625,39.2 482.204,120.588c126.596,81.37 232.138,180.833 307.451,304.391c78.4,123.542 129.616,259.188 159.791,403.854c30.084,147.73 42.167,286.392 36.163,418.996l-1633.68,0c-2.966,96.421 9.046,186.838 33.196,271.267c24.096,84.408 66.267,162.758 123.559,229.079c57.291,66.267 126.6,117.554 213.975,156.683c87.466,39.221 189.895,60.35 307.45,60.35c150.745,0 277.325,-36.183 373.766,-105.558c96.425,-69.287 159.721,-177.796 192.917,-319.442l355.625,0c-51.217,241.109 -156.683,424.98 -319.446,548.542Zm-87.462,-1401.55c-33.125,-75.383 -75.296,-141.633 -129.55,-195.887c-54.255,-54.254 -120.592,-99.479 -192.934,-129.634c-75.383,-33.125 -156.754,-48.245 -247.171,-48.245c-93.404,-0 -177.812,15.12 -250.154,48.245c-72.329,33.125 -138.666,75.38 -192.916,132.588c-54.255,57.292 -96.425,120.587 -126.6,195.971c-30.088,75.296 -48.175,153.716 -54.255,238.054l1253.91,-0c-9.046,-84.338 -27.138,-165.708 -60.329,-241.092Z" style="fill:#1d1d1b;fill-rule:nonzero;"/><path d="M63542.9,6411.96l-0,-440.037l358.646,-0l-0,440.037l-358.646,0Zm358.646,391.859l-0,2182.22l-358.646,0.001l-0,-2182.22l358.646,-0Z" style="fill:#1d1d1b;fill-rule:nonzero;"/><path d="M64796.7,6803.83l-0,322.48l9.046,-0c162.762,-247.1 397.85,-370.73 705.295,-370.73c135.625,0 256.217,27.121 367.692,84.413c108.508,57.292 186.908,150.675 232.117,286.317c72.346,-117.55 168.766,-210.934 289.358,-274.234c120.521,-63.3 250.158,-96.496 394.825,-96.496c108.508,0 207.971,12.067 298.388,36.167c87.395,24.167 165.8,60.329 229.095,111.546c63.3,51.212 111.475,117.55 147.642,195.883c36.179,81.388 51.283,177.883 51.283,289.358l0,1600.47l-358.716,0l-0,-1431.63c-0,-66.338 -6.004,-129.638 -18.088,-189.896c-12,-60.329 -33.125,-111.546 -63.3,-153.717c-30.087,-42.237 -75.296,-78.404 -129.55,-102.5c-54.254,-24.079 -126.596,-39.2 -214.046,-39.2c-177.812,0 -316.475,51.284 -418.904,150.746c-102.516,99.463 -150.762,235.104 -150.762,403.871l-0,1359.38l-358.646,0l-0,-1431.72c-0,-69.308 -6.008,-135.645 -18.092,-192.937c-12.066,-60.242 -36.162,-111.458 -66.321,-153.713c-30.104,-42.17 -72.341,-78.333 -123.558,-102.433c-51.217,-24.146 -117.55,-36.162 -201.962,-36.162c-102.446,-0 -192.863,21.041 -268.23,63.3c-75.379,42.17 -135.641,93.383 -180.85,150.675c-45.208,60.262 -81.387,120.591 -102.5,183.891c-21.058,63.279 -33.141,117.534 -33.141,159.721l-0,1359.38l-358.646,0l-0,-2182.22l340.571,0Z" style="fill:#1d1d1b;fill-rule:nonzero;"/><rect x="67997.9" y="7644.75" width="1220.71" height="337.604" style="fill:#1d1d1b;"/><path d="M71837.5,5974.96l0,337.534l-1678.82,-0l0,958.471l1564.3,-0l0,337.604l-1564.3,-0l0,1042.9l1690.9,-0l0,337.516l-2091.81,0l0,-3014.03l2079.72,0Z" style="fill:#1d1d1b;fill-rule:nonzero;"/><path d="M72615,6803.83l0,346.63l9.046,-0.001c150.746,-265.258 385.85,-397.845 708.333,-397.845c144.671,-0 262.225,18.071 358.646,60.258c96.512,42.171 171.808,93.458 232.137,165.8c60.259,69.288 99.463,153.717 123.559,250.142c24.079,96.421 36.162,204.929 36.162,322.479l0,1434.76l-358.645,0l-0,-1476.93c-0,-135.642 -39.217,-241.108 -117.55,-319.512c-78.421,-78.35 -186.93,-117.55 -325.521,-117.55c-108.509,-0 -205.021,18.07 -283.355,51.283c-81.387,33.125 -147.708,81.387 -201.958,144.671c-54.254,63.3 -93.404,135.641 -120.521,217.012c-27.137,84.359 -39.204,174.775 -39.204,271.267l0,1232.71l-358.662,0l-0,-2182.13l337.533,-0l0,-3.038Z" style="fill:#1d1d1b;fill-rule:nonzero;"/><path d="M75761.7,7120.29l-1232.71,-0l0,-316.475l1696.91,-0l-0.017,244.129l-1332.24,1621.6l1392.5,-0l-0,316.492l-1838.54,-0.001l-0,-274.304l1314.1,-1591.44Z" style="fill:#1d1d1b;fill-rule:nonzero;"/><path d="M77027.5,5974.96l0,1784.29l994.637,-952.396l482.271,-0l-865.016,792.675l928.316,1389.46l-455.137,0l-747.484,-1139.32l-337.587,313.525l-0,825.796l-358.663,0l0,-3014.03l358.663,0Z" style="fill:#1d1d1b;fill-rule:nonzero;"/><path d="M79165.4,6803.83l-0,461.146l9.046,0c87.375,-177.796 192.916,-307.433 319.512,-391.858c126.579,-84.342 286.3,-123.542 482.204,-117.534l0,379.771c-144.687,0 -265.192,21.113 -367.708,60.334c-102.5,39.129 -183.871,96.421 -244.134,171.787c-60.258,75.313 -105.466,168.767 -135.641,277.275c-27.117,108.504 -42.171,232.063 -42.171,373.767l0,970.483l-358.712,0l-0,-2182.13l337.604,-0l-0,-3.038Z" style="fill:#1d1d1b;fill-rule:nonzero;"/><path d="M81711.7,8847.38c-162.763,123.558 -367.692,186.854 -614.863,186.854c-174.775,0 -325.521,-27.133 -452.117,-84.354c-126.595,-57.292 -235.104,-135.625 -322.483,-235.087c-87.379,-102.501 -153.717,-223.092 -195.883,-361.705c-42.259,-138.662 -69.375,-295.416 -75.384,-461.145c0,-165.796 24.08,-319.513 75.384,-455.155c51.212,-138.662 120.5,-256.216 213.975,-358.646c90.416,-102.499 198.921,-180.85 325.521,-235.104c126.579,-57.291 262.22,-84.408 412.9,-84.408c192.916,0 355.675,39.2 482.275,120.588c126.596,81.37 232.062,180.833 307.429,304.391c78.35,123.542 129.633,259.188 159.721,403.854c30.175,147.73 42.258,286.392 36.179,418.996l-1633.61,0c-3.037,96.421 9.046,186.838 33.125,271.267c24.167,84.408 66.338,162.758 123.63,229.079c57.22,66.267 126.595,117.554 213.975,156.683c87.395,39.221 189.895,60.35 307.445,60.35c150.68,0 277.259,-36.183 373.767,-105.558c96.425,-69.287 159.725,-177.796 192.85,-319.442l355.675,0c-51.212,241.109 -156.754,424.98 -319.512,548.542Zm-84.342,-1401.55c-33.192,-75.383 -75.379,-141.633 -129.633,-195.887c-54.255,-54.254 -120.575,-99.479 -192.917,-129.634c-75.313,-33.125 -156.683,-48.245 -247.1,-48.245c-93.475,-0 -177.883,15.12 -250.225,48.245c-72.346,33.125 -138.596,75.38 -192.85,132.588c-54.254,57.292 -96.508,120.587 -126.596,195.971c-30.158,75.296 -48.246,153.716 -54.254,238.054l1253.84,-0c-9.045,-84.338 -30.175,-165.708 -60.262,-241.092Z" style="fill:#1d1d1b;fill-rule:nonzero;"/><path d="M82456.7,6411.96l-0,-440.037l358.645,-0l0,440.037l-358.645,0Zm358.645,391.859l0,2182.22l-358.645,0.001l-0,-2182.22l358.645,-0Z" style="fill:#1d1d1b;fill-rule:nonzero;"/><path d="M83643.8,8497.75c33.125,54.25 78.35,99.458 132.604,129.546c54.254,30.175 117.533,54.254 186.842,69.375c69.375,15.054 138.679,21.058 214.041,21.058c57.226,0 114.517,-2.967 177.817,-12.012c63.296,-9.046 117.55,-24.167 171.804,-45.209c51.213,-21.129 96.421,-54.254 129.617,-99.462c33.142,-42.258 51.217,-99.479 51.217,-165.817c-0,-93.454 -36.163,-162.758 -105.471,-211.004c-69.358,-48.179 -156.754,-87.379 -265.258,-114.517c-105.471,-30.154 -220.055,-57.291 -343.596,-81.37c-123.559,-24.08 -238.142,-57.292 -343.609,-102.5c-105.47,-42.171 -192.937,-105.467 -265.262,-183.821c-69.304,-78.4 -105.467,-189.875 -105.467,-328.559c0,-108.504 24.079,-204.929 75.363,-283.333c48.179,-78.35 111.475,-141.65 189.896,-192.862c78.333,-48.246 165.729,-84.413 262.22,-108.509c96.425,-24.166 192.85,-36.162 289.359,-36.162c123.541,-0 238.058,9.046 340.558,30.087c105.467,21.129 195.9,57.292 277.271,108.504c81.392,51.288 144.687,123.63 192.937,211.009c48.246,87.396 75.363,198.941 84.409,331.529l-358.717,-0c-6.004,-69.288 -24.096,-129.55 -54.254,-174.758c-30.104,-45.225 -69.304,-84.425 -117.55,-111.546c-48.179,-27.134 -99.463,-48.263 -159.721,-60.259c-60.262,-12.083 -114.517,-18.091 -174.846,-18.091c-54.254,-0 -108.508,2.971 -162.758,12.012c-54.254,9.029 -105.471,24.15 -150.679,45.209c-45.209,21.112 -81.388,48.25 -108.504,84.412c-27.138,36.179 -42.171,81.388 -42.171,138.679c-0,63.3 21.041,114.513 66.25,153.717c42.254,42.171 99.479,75.296 165.796,102.429c66.337,27.138 144.687,48.246 229.1,66.338c84.337,18.07 168.766,36.162 253.175,57.291c90.433,21.042 177.812,42.171 265.191,72.325c87.467,27.138 162.779,66.267 229.096,111.475c66.338,45.209 120.592,105.542 159.725,174.846c39.217,69.304 60.329,156.754 60.329,262.221c0,132.604 -27.121,241.112 -81.371,328.558c-54.254,87.4 -126.6,156.688 -214.045,210.942c-87.396,54.25 -186.859,90.433 -298.405,111.542c-111.475,21.129 -219.983,33.141 -331.529,33.141c-120.587,0 -235.083,-12.012 -346.629,-39.146c-108.508,-24.15 -207.987,-66.32 -292.329,-123.612c-84.408,-57.221 -150.746,-132.604 -201.958,-229.029c-51.217,-96.492 -78.355,-207.967 -84.43,-343.609l358.734,0c-6.075,78.35 12.012,144.688 45.208,198.938l0,0.004Z" style="fill:#1d1d1b;fill-rule:nonzero;"/><path d="M88197.9,8847.38c-162.763,123.558 -367.692,186.854 -614.863,186.854c-174.846,0 -325.521,-27.133 -452.117,-84.354c-126.599,-57.292 -235.104,-135.625 -322.483,-235.087c-87.467,-102.501 -153.717,-223.092 -195.971,-361.705c-42.171,-138.662 -69.291,-295.416 -75.296,-461.145c0,-165.796 24.08,-319.513 75.296,-455.155c51.3,-138.662 120.588,-256.216 214.063,-358.646c90.412,-102.499 198.921,-180.85 325.521,-235.104c126.579,-57.291 262.221,-84.408 412.896,-84.408c192.916,0 355.679,39.2 482.275,120.588c126.6,81.37 232.066,180.833 307.433,304.391c78.35,123.542 129.562,259.188 159.721,403.854c30.175,147.73 42.187,286.392 36.179,418.996l-1633.61,0c-3.037,96.421 9.046,186.838 33.125,271.267c24.1,84.408 66.338,162.758 123.563,229.079c57.292,66.267 126.596,117.554 214.046,156.683c87.375,39.221 189.896,60.35 307.429,60.35c150.696,0 277.275,-36.183 373.696,-105.558c96.512,-69.287 159.808,-177.796 192.933,-319.442l355.679,0c-51.283,241.109 -156.754,424.98 -319.512,548.542Zm-87.379,-1401.55c-33.213,-75.383 -75.384,-141.633 -129.638,-195.887c-54.25,-54.254 -120.571,-99.479 -192.917,-129.634c-75.312,-33.125 -156.683,-48.245 -247.1,-48.245c-93.47,-0 -177.883,15.12 -250.225,48.245c-72.341,33.125 -138.591,75.38 -192.845,132.588c-54.255,57.292 -96.513,120.587 -126.6,195.971c-30.155,75.296 -48.246,153.716 -54.255,238.054l1253.84,-0c-9.046,-84.338 -27.133,-165.708 -60.258,-241.092Z" style="fill:#1d1d1b;fill-rule:nonzero;"/><rect x="88999.6" y="8518.79" width="467.154" height="467.154" style="fill:#1d1d1b;"/><path d="M90880.4,8986.04l-1057.94,-3014.12l431.063,0l861.979,2613.21l9.042,-0l868.058,-2613.21l418.975,0l-1072.99,3014.12l-458.191,-0Z" style="fill:#1d1d1b;fill-rule:nonzero;"/><rect x="92207.1" y="8518.79" width="467.154" height="467.154" style="fill:#1d1d1b;"/></g><rect x="49271.2" y="11288.8" width="24133.7" height="3065.33" style="fill:none;"/><g><text x="50301.2px" y="13576.9px" style="font-family:'ArialMT', 'Arial', sans-serif;font-size:2109.88px;fill:#e60005;">S</text><g><text x="51729.6px" y="13576.9px" style="font-family:'ArialMT', 'Arial', sans-serif;font-size:2109.88px;fill:#e60005;">T</text><g><text x="52882.9px" y="13576.9px" style="font-family:'ArialMT', 'Arial', sans-serif;font-size:2109.88px;fill:#e60005;">A</text><text x="54311.2px" y="13576.9px" style="font-family:'ArialMT', 'Arial', sans-serif;font-size:2109.88px;fill:#e60005;">B<tspan x="55739.6px 56346.7px 57462.9px 58070.4px 59498.8px 61160.8px 62470.8px 63077.9px 64506.2px " y="13576.9px 13576.9px 13576.9px 13576.9px 13576.9px 13576.9px 13576.9px 13576.9px 13576.9px ">IL SOZIAL</tspan></text></g></g></g><path d="M72895.8,14354.1l-23371.2,0c-138.662,0 -253.179,-114.512 -253.179,-253.191l0.004,-2558.94c-0.004,-138.683 114.513,-253.196 253.192,-253.196l23627.4,0c138.683,0 253.179,114.517 253.179,253.179l-0,2302.74c-0,280.313 -226.042,509.408 -509.392,509.408l0.029,0Z" style="fill:none;fill-rule:nonzero;stroke:#e60005;stroke-width:277.08px;"/></g></g></svg>