<?xml version="1.0" encoding="UTF-8" standalone="no"?><!DOCTYPE svg PUBLIC "-//W3C//DTD SVG 1.1//EN" "http://www.w3.org/Graphics/SVG/1.1/DTD/svg11.dtd"><svg width="100%" height="100%" viewBox="0 0 22246 3505" version="1.1" xmlns="http://www.w3.org/2000/svg" xmlns:xlink="http://www.w3.org/1999/xlink" xml:space="preserve" xmlns:serif="http://www.serif.com/" style="fill-rule:evenodd;clip-rule:evenodd;"><g><g id="Logo"><g id="DRK-Logo"><path id="Wortmarke_1_" d="M3859.24,275.85l364.583,-0c219.183,-0 383.383,137.45 383.383,417.396c0,245.225 -125.137,427.516 -383.383,427.516l-364.583,0l-0,-844.912Zm185.9,688.662l165.662,0c107.775,0 210.504,-66.545 210.504,-253.175c0,-170.729 -59.325,-279.237 -243.787,-279.237l-132.379,-0l-0,532.412Zm802.225,-108.504c5.066,106.334 57.149,154.809 150.466,154.809c67.275,-0 122.258,-41.234 132.379,-79.584l147.571,0c-47.017,144.688 -147.571,206.163 -286.458,206.163c-193.146,-0 -312.5,-132.379 -312.5,-321.892c-0,-183.75 126.596,-323.35 312.5,-323.35c208.333,0 308.887,175.05 297.308,363.125l-441.267,0l0,0.729Zm273.438,-106.337c-15.192,-85.367 -52.083,-130.209 -133.821,-130.209c-106.337,0 -137.45,82.463 -139.617,130.209l273.438,-0Zm841.3,371.091l-159.879,0l-0,-85.362l-3.609,-0c-42.675,68.733 -115.75,101.996 -186.633,101.996c-178.679,-0 -223.525,-100.538 -223.525,-251.738l0,-376.146l167.829,0l0,345.767c0,100.554 29.654,150.467 107.779,150.467c91.146,-0 130.209,-50.642 130.209,-175.05l-0,-321.184l167.829,0l-0,611.25Zm347.221,-611.25l123.7,0l-0,112.121l-122.988,0l0,303.088c0,57.154 14.479,70.904 70.904,70.904c18.071,-0 33.992,-1.458 52.084,-5.071l-0,131.65c-28.213,5.071 -65.104,5.8 -98.388,5.8c-102.725,0 -193.141,-23.871 -193.141,-145.4l-0,-360.971l-101.996,0l-0,-112.121l101.996,0l-0,-183.75l167.829,0l-0,183.75Zm345.054,413.038c1.442,73.075 62.933,102.729 128.75,102.729c48.471,0 109.967,-18.804 109.967,-78.125c-0,-50.646 -69.446,-68.717 -190.263,-94.758c-96.925,-20.992 -193.854,-55.713 -193.854,-163.492c0,-156.25 135.262,-196.75 266.2,-196.75c133.817,0 256.804,44.842 269.825,195.313l-159.879,-0c-5.05,-65.105 -54.254,-82.467 -115.017,-82.467c-37.604,-0 -93.316,7.221 -93.316,57.133c-0.001,60.054 94.774,68.734 190.262,91.146c98.367,22.433 193.854,57.883 193.854,171.442c0,160.591 -139.604,212.675 -279.221,212.675c-141.787,-0 -280.675,-53.525 -287.9,-215.554l160.592,-0l0,0.708Zm913.629,-198.192c-10.85,-68.733 -54.254,-105.625 -124.429,-105.625c-107.775,0 -143.229,109.234 -143.229,198.942c-0,87.517 33.996,193.142 139.621,193.142c78.125,-0 122.966,-49.913 133.816,-124.43l162.034,0c-20.975,162.034 -133.821,251.009 -294.413,251.009c-184.458,-0 -308.887,-130.209 -308.887,-313.942c-0,-190.242 113.575,-331.3 312.5,-331.3c144.687,0 277.066,75.954 287.916,232.204l-164.929,0Zm262.588,-448.508l167.812,-0l0,318.3l3.625,-0c42.675,-68.733 115.734,-101.996 178.667,-101.996c178.679,0 223.525,100.538 223.525,251.733l-0,376.146l-167.813,0l0,-345.762c0,-100.554 -29.671,-150.471 -107.796,-150.471c-91.145,-0 -130.208,50.646 -130.208,175.054l0,320.467l-167.812,-0l-0,-843.471Zm831.875,580.154c4.337,106.338 57.15,154.813 150.466,154.813c67.275,-0 121.53,-41.234 132.38,-79.584l148.3,0c-47.034,144.688 -148.3,206.163 -286.459,206.163c-193.141,-0 -312.5,-132.379 -312.5,-321.892c0,-183.75 126.579,-323.35 312.5,-323.35c208.334,0 308.871,175.05 297.309,363.125l-441.996,0l-0,0.729l-0,-0.004Zm273.437,-106.337c-15.191,-85.367 -52.083,-130.209 -133.821,-130.209c-106.337,0 -137.445,82.463 -139.616,130.209l273.437,-0Zm397.863,172.879c1.441,73.075 62.933,102.729 128.766,102.729c48.459,0 109.95,-18.804 109.95,-78.125c0,-50.646 -70.175,-68.717 -190.241,-94.758c-96.946,-20.992 -193.875,-55.713 -193.875,-163.492c-0,-156.25 134.55,-196.75 266.2,-196.75c133.837,-0 256.804,44.842 269.825,195.312l-159.859,0c-4.341,-65.104 -54.254,-82.466 -115.02,-82.466c-37.621,-0 -93.313,7.221 -93.313,57.133c0,60.054 94.754,68.733 190.242,91.146c98.383,22.433 193.871,57.883 193.871,171.442c-0,160.591 -139.617,212.675 -279.238,212.675c-141.771,-0 -280.658,-53.525 -287.896,-215.555l160.588,0l-0,0.709Zm-5474.54,1567.57l185.9,-0l0,350.121l329.863,-350.121l232.204,-0l-329.859,333.47l362.413,511.442l-232.933,0l-254.621,-379.775l-106.338,107.779l0,271.996l-185.916,0l-0,-844.912l-0.713,-0Zm836.942,233.646l159.862,-0.001l0,113.576l2.171,-0c31.113,-76.684 113.575,-130.209 195.313,-130.209c11.579,0 26.041,2.171 36.891,5.784l0,156.249c-15.191,-3.612 -40.504,-5.783 -60.033,-5.783c-122.971,0 -165.663,88.979 -165.663,196.754l0,275.609l-167.812,-0l-0,-611.979l-0.729,-0Zm577.987,346.512c5.054,106.333 57.138,154.792 150.45,154.792c67.275,-0 122.259,-41.234 132.379,-79.567l148.3,0c-47.016,144.671 -148.3,206.163 -286.458,206.163c-193.142,-0 -312.5,-132.38 -312.5,-321.909c0,-183.733 126.596,-323.354 312.5,-323.354c208.333,0 308.888,175.071 297.308,363.146l-441.979,-0l0,0.729Zm272.709,-106.337c-15.192,-85.367 -52.084,-130.209 -133.821,-130.209c-106.334,0 -137.446,83.175 -139.617,130.209l273.438,-0Zm831.162,371.091l-159.858,0l-0,-85.362l-3.629,-0c-42.675,68.712 -115.73,101.996 -186.634,101.996c-178.662,-0 -223.525,-100.555 -223.525,-251.738l0,-376.162l167.829,-0l0,345.783c0,100.554 29.655,150.467 107.78,150.467c91.145,-0 130.208,-50.642 130.208,-175.071l-0,-320.45l167.829,-0l0,610.537Zm91.875,-126.596l318.283,-358.804l-294.412,0l-0,-126.579l515.767,0l-0,126.579l-318.284,358.804l340.713,0l-0,126.596l-562.067,0l0,-126.596Zm-2611.4,-1825.09l456.458,-0c151.179,-0 247.396,105.608 247.396,232.933c0,99.1 -40.521,173.613 -133.837,211.946l-0,2.171c91.145,23.871 117.187,112.116 122.987,197.483c3.608,53.521 2.167,152.638 35.433,199.65l-185.904,0c-22.429,-53.525 -20.258,-135.275 -29.654,-202.55c-13.021,-88.975 -47.029,-128.037 -141.058,-128.037l-185.921,-0l-0,329.858l-185.9,-0l-0,-843.454Zm186.629,381.946l203.267,-0c83.191,-0 128.037,-35.455 128.037,-120.8c0,-81.755 -44.846,-117.188 -128.037,-117.188l-203.267,0l0,237.988Zm932.433,-165.663c193.142,0 316.838,128.042 316.838,323.354c-0,193.871 -124.408,321.909 -316.838,321.909c-191.683,-0 -316.112,-128.038 -316.112,-321.909c-0,-195.312 124.425,-323.354 316.112,-323.354Zm0,518.667c115.017,-0 149.025,-98.371 149.025,-195.313c0,-98.37 -34.008,-196.754 -149.025,-196.754c-113.558,0 -147.57,98.383 -147.57,196.754c-0,96.942 34.012,195.313 147.57,195.313Zm635.85,-502.017l123.696,0l0,112.121l-122.966,-0l-0,303.087c-0,57.155 14.462,70.905 70.883,70.905c18.092,-0 34.012,-1.459 52.083,-5.071l0,131.65c-28.208,5.071 -65.104,5.8 -98.366,5.8c-102.725,-0 -193.142,-23.871 -193.142,-145.4l-0,-360.971l-101.996,-0l0,-112.121l101.996,0l-0,-183.75l167.812,0l0,183.75Zm346.509,346.496c5.054,106.333 57.137,154.808 150.454,154.808c67.275,0 121.525,-41.233 132.379,-79.583l148.296,-0c-47.013,144.687 -148.296,206.162 -286.458,206.162c-193.142,0 -312.5,-132.379 -312.5,-321.891c-0,-183.75 126.6,-323.35 312.5,-323.35c208.333,-0 308.891,175.05 297.308,363.125l-441.979,-0l-0,0.729Zm273.437,-106.338c-15.187,-85.366 -52.083,-130.208 -133.833,-130.208c-106.338,0 -137.433,83.192 -139.604,130.208l273.437,0Zm397.85,172.88c1.459,73.075 62.934,102.729 128.767,102.729c48.471,-0 109.946,-18.804 109.946,-78.125c-0,-50.646 -70.154,-68.717 -190.242,-94.759c-96.925,-20.991 -193.871,-55.712 -193.871,-163.491c0,-156.25 134.55,-196.75 266.217,-196.75c133.817,-0 256.787,44.841 269.808,195.312l-159.862,0c-4.342,-65.104 -54.254,-82.466 -115.017,-82.466c-37.621,-0 -93.317,7.22 -93.317,57.133c0,60.054 94.759,68.733 190.242,91.146c98.388,22.433 193.875,57.883 193.875,171.441c0,161.321 -139.621,212.675 -279.221,212.675c-141.787,0 -280.675,-53.525 -287.916,-215.554l160.591,0l0,0.709Z" style="fill:#1d1d1b;fill-rule:nonzero;"/><path id="Bildmarke_1_" d="M3059.9,1301.61l-0,1019.97l-1019.97,0l0,1014.17l-1019.96,-0l-0,-1019.97l-1019.97,0l-0,-1019.96l1019.97,-0l-0,-1019.97l1019.96,-0l0,1025.76l1019.97,0Z" style="fill:#e60005;fill-rule:nonzero;"/></g><path d="M10661.9,275.85l0,3169.13" style="fill:none;fill-rule:nonzero;stroke:#1d1d1b;stroke-width:66.64px;"/></g><g id="Absenderkennung"><g><path d="M12039.9,276.579c111.408,0 196.754,28.213 257.521,85.367c60.049,56.421 90.433,143.229 90.433,258.958c-0,60.763 -6.513,114.304 -20.263,161.317c-13.75,47.016 -34.72,86.079 -62.933,118.629c-28.212,31.842 -64.375,56.425 -108.508,73.783c-44.129,16.65 -96.213,25.334 -156.25,25.334l-248.125,-0l-0,-723.388l248.125,0Zm7.954,641.633c10.85,0 24.6,-0.712 40.521,-2.17c15.9,-1.442 33.262,-5.784 51.354,-12.292c18.087,-6.513 36.162,-15.921 54.25,-27.483c18.092,-12.309 33.996,-28.942 48.475,-49.913c14.462,-20.992 26.042,-47.033 34.721,-78.125c8.679,-31.112 13.733,-69.446 13.733,-114.304c0,-43.404 -4.342,-81.738 -12.292,-115.733c-8.679,-34.009 -22.429,-62.934 -41.233,-86.804c-19.529,-23.871 -44.129,-41.963 -74.512,-54.984c-30.384,-12.292 -67.988,-18.8 -112.121,-18.8l-162.03,0l0.001,561.338l159.133,-0l-0,-0.73Z" style="fill:#1d1d1b;fill-rule:nonzero;"/><path d="M12845,276.579c68.712,0 122.966,16.633 161.316,50.642c39.063,33.996 57.867,80.296 57.867,138.891c0,44.113 -10.121,82.463 -29.654,115.73c-20.259,33.279 -52.084,55.708 -95.488,68l0,2.17c20.975,4.342 38.334,10.85 51.354,20.263c13.021,9.392 23.875,20.971 31.113,33.992c7.95,13.02 13.733,27.483 17.362,44.133c3.609,15.9 6.509,33.262 8.68,50.625c1.441,17.358 2.171,35.45 2.883,53.542c0.729,18.07 2.171,36.162 5.067,53.52c2.9,17.363 6.512,33.996 11.583,49.917c5.05,15.921 12.292,29.65 22.413,41.963l-107.05,-0c-6.509,-7.242 -11.58,-17.363 -13.751,-30.384c-2.17,-13.021 -3.612,-27.5 -4.341,-43.404c-0.729,-15.921 -1.438,-33.279 -2.167,-51.371c-0.729,-18.071 -2.9,-36.162 -5.783,-53.525c-2.9,-17.358 -5.8,-33.991 -10.138,-49.912c-4.341,-15.921 -10.85,-29.654 -19.533,-41.234c-8.679,-11.579 -20.242,-20.97 -34.721,-28.212c-14.462,-7.238 -33.262,-10.85 -56.425,-10.85l-235.087,-0l-0,308.892l-96.213,-0l0,-723.388l340.713,0Zm20.258,327.692c20.242,-3.613 37.604,-10.121 52.796,-19.534c15.191,-10.12 27.5,-23.141 36.179,-39.791c9.392,-16.629 13.733,-38.334 13.733,-64.375c0,-36.163 -10.121,-65.833 -30.383,-88.975c-20.242,-23.142 -52.792,-34.721 -98.367,-34.721l-238.716,0l-0,252.467l200.366,-0c23.159,-0 44.134,-1.459 64.392,-5.071Z" style="fill:#1d1d1b;fill-rule:nonzero;"/><path d="M13295,275.85l0,360.971l366.754,-360.242l124.409,0l-304.53,291.529l316.838,431.129l-121.525,0l-261.146,-365.316l-120.8,112.137l0,253.179l-96.217,0l0,-723.387l96.217,-0Z" style="fill:#1d1d1b;fill-rule:nonzero;"/><rect x="13845.5" y="677.325" width="292.971" height="81.025" style="fill:#1d1d1b;"/><path d="M14364.2,275.85l-0,360.971l366.754,-360.242l124.425,0l-304.55,291.529l316.842,431.129l-121.525,0l-261.146,-365.316l-120.8,112.137l-0,253.179l-96.217,0l-0,-723.387l96.217,-0Z" style="fill:#1d1d1b;fill-rule:nonzero;"/><path d="M15007.2,475.504l-0.004,110.675l2.171,0c20.975,-42.671 46.287,-73.783 76.666,-94.025c30.384,-20.262 68.734,-29.671 115.75,-28.212l0,91.145c-34.725,0 -63.666,5.05 -88.25,14.463c-24.6,9.408 -44.129,23.142 -58.591,41.229c-14.479,18.092 -25.329,40.504 -32.554,66.546c-6.509,26.042 -10.138,55.712 -10.138,89.704l0,232.938l-86.075,-0l0,-523.734l81.025,0l0,-0.729Z" style="fill:#1d1d1b;fill-rule:nonzero;"/><path d="M15619.2,965.954c-39.066,29.671 -88.266,44.863 -147.57,44.863c-41.963,-0 -78.125,-6.513 -108.509,-20.263c-30.383,-13.75 -56.425,-32.55 -77.412,-56.421c-20.971,-24.604 -36.892,-53.525 -47.013,-86.808c-10.121,-33.279 -16.633,-70.883 -18.091,-110.675c-0,-39.792 5.8,-75.954 18.091,-109.238c12.292,-33.262 28.942,-61.475 51.354,-86.075c21.7,-24.6 47.742,-43.404 78.125,-56.425c30.38,-13.75 62.934,-20.258 99.113,-20.258c46.287,0 85.35,9.408 115.729,28.938c30.383,19.533 55.713,43.404 73.788,73.058c18.816,29.667 31.108,62.221 38.35,96.942c7.22,35.437 10.12,68.716 8.679,100.541l-392.084,0c-0.712,23.159 2.171,44.859 7.967,65.104c5.783,20.259 15.904,39.063 29.654,54.98c13.75,15.92 30.384,28.212 51.354,37.625c20.992,9.391 45.575,14.458 73.788,14.458c36.179,-0 66.558,-8.679 89.704,-25.313c23.142,-16.645 38.333,-42.687 46.3,-76.683l85.35,0c-12.292,57.867 -37.604,101.996 -76.667,131.65Zm-20.991,-336.371c-7.95,-18.075 -18.071,-33.991 -31.092,-47.012c-13.021,-13.021 -28.942,-23.875 -46.304,-31.113c-18.092,-7.95 -37.621,-11.562 -59.321,-11.562c-22.417,-0 -42.675,3.608 -60.037,11.562c-17.359,7.967 -33.28,18.092 -46.3,31.838c-13.021,13.733 -23.142,28.925 -30.384,47.016c-7.221,18.092 -11.562,36.892 -13.021,57.155l300.938,-0c-2.171,-20.263 -6.513,-39.796 -14.479,-57.884Z" style="fill:#1d1d1b;fill-rule:nonzero;"/><path d="M15797.2,381.475l-0,-105.625l86.075,-0l-0,105.625l-86.075,-0Zm86.075,94.029l-0,523.733l-86.075,0l-0,-523.733l86.075,0Z" style="fill:#1d1d1b;fill-rule:nonzero;"/><path d="M16082.9,882.05c7.95,13.021 18.8,23.871 31.821,31.108c13.02,7.954 28.212,13.021 44.862,16.634c16.633,3.612 33.263,5.07 51.354,5.07c13.75,0 27.484,-0.729 42.675,-2.9c15.188,-2.17 28.209,-5.783 41.229,-10.854c13.021,-5.066 23.163,-13.021 31.113,-23.871c7.95,-10.12 12.292,-23.87 12.292,-39.791c-0,-22.413 -8.68,-39.063 -25.313,-50.625c-16.633,-11.579 -37.621,-20.988 -63.662,-27.5c-25.313,-7.221 -52.796,-13.729 -82.467,-19.529c-29.65,-5.784 -57.133,-13.734 -82.463,-24.584c-25.312,-10.137 -46.287,-25.329 -63.645,-44.133c-16.65,-18.8 -25.334,-45.571 -25.334,-78.854c0,-26.042 5.8,-49.184 18.092,-67.988c11.579,-18.816 26.771,-34.008 45.575,-46.3c18.8,-11.579 39.792,-20.258 62.933,-26.041c23.142,-5.78 46.3,-8.68 69.442,-8.68c29.654,0 57.154,2.167 81.737,7.238c25.33,5.054 47.034,13.733 66.563,26.042c19.533,12.291 34.721,29.654 46.283,50.625c11.584,20.991 18.092,47.745 20.263,79.583l-86.075,-0c-1.459,-16.65 -5.8,-31.108 -13.021,-41.963c-7.242,-10.85 -16.65,-20.258 -28.213,-26.77c-11.579,-6.509 -23.87,-11.563 -38.35,-14.463c-14.462,-2.896 -27.483,-4.337 -41.945,-4.337c-13.021,-0 -26.042,0.729 -39.063,2.9c-13.021,2.17 -25.329,5.779 -36.179,10.85c-10.85,5.05 -19.533,11.562 -26.042,20.241c-6.512,8.684 -10.121,19.534 -10.121,33.284c0,15.191 5.067,27.483 15.917,36.891c10.125,10.121 23.871,18.092 39.775,24.6c15.921,6.513 34.725,11.563 54.983,15.904c20.263,4.338 40.505,8.68 60.763,13.75c21.704,5.067 42.675,10.121 63.667,17.359c20.97,7.241 39.062,15.921 54.962,26.771c15.921,10.854 28.942,25.312 38.35,41.945c9.396,16.65 14.463,37.621 14.463,62.934c-0,31.841 -6.509,57.883 -19.53,78.854c-13.02,20.975 -30.383,37.621 -51.354,50.642c-20.991,13.02 -44.862,21.704 -71.616,26.754c-26.771,5.071 -52.813,7.241 -79.584,7.241c-28.921,0 -56.421,-2.9 -83.175,-9.412c-26.041,-5.779 -49.912,-15.9 -70.175,-29.65c-20.258,-13.75 -36.162,-31.825 -48.471,-54.983c-12.291,-22.413 -18.804,-49.913 -20.245,-82.467l86.079,-0c-2.171,19.533 2.166,35.454 10.85,48.475Z" style="fill:#1d1d1b;fill-rule:nonzero;"/><path d="M16666.7,999.237l-194.584,-523.733l96.2,0l146.854,436.196l2.171,-0l142.5,-436.196l90.417,0l-191.683,523.733l-91.875,0Z" style="fill:#1d1d1b;fill-rule:nonzero;"/><path d="M17400.2,965.954c-39.063,29.671 -88.25,44.863 -147.571,44.863c-41.963,-0 -78.125,-6.513 -108.509,-20.263c-30.379,-13.75 -56.42,-32.55 -77.395,-56.421c-20.988,-24.604 -36.892,-53.525 -47.03,-86.808c-10.12,-33.279 -16.633,-70.883 -18.075,-110.675c0,-39.792 5.784,-75.954 18.075,-109.238c12.309,-33.262 28.942,-61.475 51.371,-86.075c21.7,-24.6 47.742,-43.404 78.125,-56.425c30.384,-13.75 62.934,-20.258 99.096,-20.258c46.304,0 85.367,9.408 115.746,28.938c30.383,19.533 55.696,43.404 73.787,73.058c18.8,29.667 31.092,62.221 38.334,96.942c7.237,35.437 10.121,68.716 8.679,100.541l-392.067,0c-0.729,23.159 2.171,44.859 7.954,65.104c5.78,20.259 15.921,39.063 29.65,54.98c13.75,15.92 30.384,28.212 51.375,37.625c20.971,9.391 45.571,14.458 73.784,14.458c36.162,-0 66.546,-8.679 89.687,-25.313c23.159,-16.645 38.35,-42.687 46.3,-76.683l85.367,0c-12.308,57.867 -37.621,101.996 -76.683,131.65Zm-20.975,-336.371c-7.967,-18.075 -18.088,-33.991 -31.109,-47.012c-13.021,-13.021 -28.941,-23.875 -46.304,-31.113c-18.071,-7.95 -37.604,-11.562 -59.304,-11.562c-22.429,-0 -42.692,3.608 -60.054,11.562c-17.359,7.967 -33.263,18.092 -46.284,31.838c-13.02,13.733 -23.158,28.925 -30.383,47.016c-7.237,18.092 -11.579,36.892 -13.021,57.155l300.921,-0c-2.171,-20.263 -6.508,-39.796 -14.462,-57.884Z" style="fill:#1d1d1b;fill-rule:nonzero;"/><path d="M17651.2,475.504l0,110.675l2.167,0c20.992,-42.671 46.304,-73.783 76.688,-94.025c30.379,-20.262 68.712,-29.671 115.745,-28.212l0,91.145c-34.725,0 -63.662,5.05 -88.266,14.463c-24.584,9.408 -44.113,23.142 -58.592,41.229c-14.462,18.092 -25.312,40.504 -32.554,66.546c-6.508,26.042 -10.121,55.712 -10.121,89.704l0,232.938l-86.075,-0l0,-523.734l81.008,0l0,-0.729Z" style="fill:#1d1d1b;fill-rule:nonzero;"/><path d="M17999.8,276.579l0,270.538l2.171,-0c14.463,-28.921 36.163,-49.913 66.546,-63.646c30.383,-13.021 63.663,-19.529 100.554,-19.529c40.504,-0 75.959,7.22 105.608,22.412c30.384,15.192 54.984,34.721 75.226,60.05c20.262,25.313 34.725,54.254 44.862,87.521c10.121,33.279 15.192,68 15.192,105.625c-0,36.892 -5.071,72.325 -14.48,105.604c-9.391,33.284 -24.583,62.209 -44.845,86.808c-20.259,24.601 -44.842,44.13 -75.225,57.863c-30.38,14.479 -65.105,20.992 -104.896,20.992c-13.021,-0 -27.484,-1.459 -42.671,-4.342c-15.921,-2.9 -31.842,-7.237 -47.033,-13.021c-15.192,-5.8 -30.384,-14.479 -44.113,-24.6c-13.75,-10.85 -25.333,-23.141 -34.725,-39.062l-2.171,-0l0,70.171l-86.091,-0l-0,-723.384l86.091,0Zm309.605,384.842c-6.513,-23.159 -15.921,-44.129 -29.655,-62.221c-13.02,-18.071 -30.383,-32.55 -50.641,-43.404c-20.263,-10.85 -44.846,-15.9 -72.346,-15.9c-28.921,-0 -53.525,5.779 -73.783,17.358c-20.242,11.563 -36.892,26.754 -49.913,44.846c-13.021,18.8 -22.412,39.792 -27.483,63.663c-5.784,23.87 -8.679,47.741 -8.679,71.616c-0,25.313 2.895,50.625 9.408,74.496c5.779,23.871 15.904,44.858 28.925,63.663c13.021,18.091 30.379,33.279 51.371,44.133c20.971,10.85 46.283,16.629 75.954,16.629c29.654,0 54.254,-5.779 74.496,-17.358c19.533,-11.584 36.179,-26.771 47.741,-45.575c12.313,-18.8 20.992,-40.504 26.042,-65.104c5.8,-24.6 7.971,-49.184 7.971,-75.225c-0,-24.6 -3.629,-48.471 -9.409,-71.617Z" style="fill:#1d1d1b;fill-rule:nonzero;"/><path d="M18975,997.067c-15.192,8.679 -35.433,13.02 -61.475,13.02c-22.429,0 -39.792,-6.512 -53.542,-18.804c-13.02,-12.308 -19.533,-33.279 -19.533,-61.491c-23.871,28.212 -51.354,48.47 -82.463,61.491c-31.095,12.292 -65.104,18.804 -101.995,18.804c-23.875,0 -46.288,-2.9 -67.275,-7.954c-20.975,-5.066 -39.775,-13.75 -54.967,-25.329c-15.192,-11.562 -27.5,-26.754 -36.892,-44.842c-9.408,-18.804 -13.75,-41.233 -13.75,-67.275c0,-29.654 5.071,-54.254 15.192,-73.058c10.121,-18.817 23.142,-34.008 39.792,-46.3c16.629,-11.579 35.433,-20.971 56.42,-26.771c20.975,-5.783 43.405,-10.85 65.105,-15.191c23.875,-5.05 46.287,-7.95 67.275,-10.85c20.975,-2.884 39.775,-5.784 56.425,-10.121c15.904,-4.342 28.925,-10.85 38.333,-19.534c9.408,-8.679 14.462,-20.97 14.462,-36.891c0,-18.8 -3.612,-33.992 -10.85,-45.571c-7.225,-11.583 -15.904,-20.263 -27.483,-26.042c-10.85,-5.783 -23.871,-10.125 -37.621,-12.291c-13.733,-2.171 -27.483,-2.9 -41.233,-2.9c-36.163,-0 -66.546,7.237 -91.146,20.97c-24.583,13.75 -37.604,39.792 -39.775,78.125l-86.096,0c1.459,-32.55 7.971,-60.033 20.263,-81.737c12.292,-22.429 28.212,-40.5 48.471,-54.25c20.246,-13.75 43.404,-23.875 69.446,-29.654c26.041,-5.8 53.524,-9.409 83.175,-9.409c23.875,0 47.033,1.438 70.175,5.067c23.141,3.613 44.133,10.121 63.662,20.975c18.804,10.121 33.996,25.313 45.575,44.129c11.563,18.804 17.358,43.404 17.358,73.788l0,269.096c0,20.241 1.442,34.72 3.613,44.116c2.171,9.409 10.121,14.479 23.871,14.479c7.241,0 15.921,-1.458 26.041,-4.341l0,66.546l1.442,-0Zm-139.6,-268.371c-10.85,7.954 -25.329,13.733 -42.692,17.362c-17.362,3.613 -36.162,6.513 -54.966,9.392c-19.529,2.171 -39.063,5.071 -58.592,7.971c-19.533,2.879 -36.892,7.95 -52.812,14.462c-15.921,6.509 -28.213,16.629 -38.334,28.938c-9.408,12.291 -14.479,29.654 -14.479,50.625c0,13.75 2.9,26.041 8.679,35.454c5.8,9.408 13.021,17.358 22.433,23.871c9.409,6.508 19.53,10.121 31.821,13.021c12.309,2.9 25.329,4.337 38.35,4.337c28.213,0 52.796,-3.608 73.059,-11.579c20.258,-7.95 36.891,-17.358 49.912,-28.921c13.021,-11.583 22.429,-24.604 28.213,-38.354c5.779,-13.729 9.408,-26.75 9.408,-39.063l0,-87.516Z" style="fill:#1d1d1b;fill-rule:nonzero;"/><path d="M19136.3,475.504l-0,83.192l2.171,-0c36.162,-63.663 92.587,-95.484 170,-95.484c34.72,0 62.933,4.338 86.075,14.459c23.145,10.141 41.233,22.433 55.695,39.791c14.48,16.634 23.871,36.896 29.671,60.038c5.779,23.158 8.679,49.2 8.679,77.412l0,344.325l-86.091,0l-0,-354.462c-0,-32.554 -9.392,-57.867 -28.213,-76.667c-18.804,-18.821 -44.846,-28.212 -78.125,-28.212c-26.041,-0 -49.183,4.337 -67.987,12.291c-19.529,7.95 -35.45,19.53 -48.471,34.721c-13.021,15.192 -22.429,32.554 -28.942,52.084c-6.508,20.262 -9.391,41.962 -9.391,65.104l-0,295.871l-86.092,-0l-0,-523.734l81.021,0l-0,-0.729Z" style="fill:#1d1d1b;fill-rule:nonzero;"/><path d="M20000,999.967l0,-71.617l-2.171,-0c-14.462,28.925 -36.162,49.912 -66.546,62.933c-30.379,13.021 -63.662,19.534 -100.554,19.534c-40.504,-0 -75.954,-7.242 -105.608,-22.434c-30.383,-15.187 -54.983,-34.721 -75.242,-60.033c-20.246,-25.329 -34.725,-54.254 -44.846,-86.804c-10.12,-33.284 -15.191,-68.004 -15.191,-105.625c-0,-36.896 5.071,-72.329 14.462,-105.609c9.413,-33.283 24.6,-62.204 44.863,-86.808c20.241,-24.6 44.841,-44.129 75.225,-58.592c30.383,-14.462 65.104,-21.7 104.896,-21.7c13.733,0 28.212,1.438 43.404,4.338c15.191,2.9 31.091,7.242 46.283,13.75c15.192,6.512 30.383,15.192 44.133,25.312c13.75,10.85 25.313,23.142 34.721,39.063l2.171,-0l0,-269.096l86.075,0l0,723.383l-86.075,0l-0,0.005Zm-309.6,-186.63c6.508,23.142 15.9,44.113 29.65,62.205c13.021,18.091 30.383,32.55 50.646,43.404c20.241,10.85 44.841,15.916 72.325,15.916c28.941,0 53.541,-5.795 73.783,-17.358c20.263,-11.579 36.892,-26.771 49.913,-44.862c13.02,-18.8 22.433,-39.775 27.5,-63.646c5.783,-23.871 8.683,-47.742 8.683,-71.613c-0,-25.333 -2.9,-50.646 -9.413,-74.516c-5.779,-23.871 -15.916,-44.842 -28.937,-63.663c-13.021,-18.071 -30.383,-33.262 -51.354,-44.112c-20.975,-10.855 -46.304,-16.65 -75.959,-16.65c-28.937,-0 -53.52,5.795 -73.783,17.358c-20.258,11.583 -36.162,26.771 -48.471,45.575c-12.291,18.821 -20.975,40.521 -26.041,65.104c-5.784,24.6 -7.954,49.2 -7.954,75.242c-0,24.583 2.9,48.454 9.412,71.616Z" style="fill:#1d1d1b;fill-rule:nonzero;"/><path d="M12108.7,1433.99c73.07,-0 128.037,18.804 165.658,56.425c37.625,37.604 56.425,89.687 56.425,157.691c0,67.275 -18.8,120.088 -56.425,157.692c-37.621,37.621 -92.583,56.421 -165.658,55.708l-220.625,0l-0,295.854l-96.217,0l0,-723.37l316.842,-0Zm-32.555,345.766c54.984,0.729 94.776,-10.125 120.088,-33.266c25.313,-23.159 38.333,-55.713 38.333,-99.113c0,-43.404 -12.291,-75.954 -38.333,-99.1c-25.312,-22.429 -65.104,-33.992 -120.083,-33.992l-188.075,0l-0,265.471l188.075,0l-0.004,0Z" style="fill:#1d1d1b;fill-rule:nonzero;"/><path d="M12381.4,1708.87l0,-75.954l88.246,-0l-0,-78.125c-0,-42.675 12.292,-74.517 36.892,-96.929c24.604,-21.701 60.766,-33.28 107.779,-33.28c7.971,0 17.362,0.729 28.212,2.171c10.138,1.438 19.534,3.609 27.5,5.779l0,75.242c-7.241,-2.896 -15.191,-4.338 -24.6,-5.796c-8.683,-0.712 -16.633,-1.442 -24.6,-1.442c-20.975,0 -36.896,4.342 -48.458,12.292c-11.579,7.971 -17.358,23.871 -17.358,46.304l-0,73.054l101.266,0l0,75.955l-101.266,-0l-0,447.779l-86.096,-0l-0,-447.779l-87.517,-0l0,0.729Z" style="fill:#1d1d1b;fill-rule:nonzero;"/><path d="M12721.3,1787.73c10.85,-33.283 26.771,-62.221 48.471,-86.804c21.704,-24.6 48.459,-44.133 80.296,-57.884c31.825,-14.462 67.987,-20.97 109.221,-20.97c41.962,-0 78.125,7.237 109.962,20.97c31.096,14.48 57.867,33.284 79.567,57.884c21.7,24.583 37.621,53.525 48.471,86.804c10.854,33.263 15.904,69.446 15.904,107.779c0,38.333 -5.779,74.513 -15.9,107.063c-10.854,33.266 -26.775,62.208 -48.475,86.808c-21.7,24.583 -48.471,44.112 -79.567,57.862c-31.108,13.75 -68.004,20.975 -109.962,20.975c-41.234,0 -77.396,-7.225 -109.221,-20.975c-31.837,-13.75 -58.592,-33.279 -80.296,-57.862c-21.7,-24.6 -37.621,-53.542 -48.471,-86.808c-10.85,-33.28 -15.921,-68.73 -15.921,-107.063c0.001,-38.333 5.071,-74.517 15.921,-107.779Zm87.534,192.412c8.683,24.6 20.245,44.846 34.725,61.496c14.462,16.629 32.55,28.921 52.083,38.334c19.529,9.408 41.233,13.02 63.646,13.02c22.429,0 43.4,-4.341 63.662,-13.02c20.259,-8.684 37.621,-21.705 52.084,-38.334c15.191,-16.65 26.77,-36.896 34.72,-61.496c8.684,-24.6 13.021,-52.812 13.021,-84.633c0,-31.825 -4.337,-60.037 -13.021,-84.637c-8.679,-24.6 -20.258,-45.571 -34.72,-62.205c-15.192,-16.65 -32.555,-29.67 -52.084,-38.35c-20.262,-8.683 -41.233,-13.02 -63.662,-13.02c-22.413,-0 -43.404,4.337 -63.646,13.02c-20.263,8.68 -37.621,21.7 -52.083,38.35c-15.192,16.634 -26.771,37.605 -34.725,62.205c-8.68,24.6 -13.021,52.812 -13.021,84.637c0.712,31.821 5.054,60.033 13.021,84.633Z" style="fill:#1d1d1b;fill-rule:nonzero;"/><path d="M13392.7,1632.92l-0.005,110.675l2.171,-0c20.975,-42.671 46.288,-73.784 76.667,-94.046c30.383,-20.242 68.733,-29.65 115.75,-28.208l0,91.145c-34.725,0 -63.667,5.067 -88.25,14.48c-24.6,9.391 -44.129,23.141 -58.592,41.229c-14.479,18.075 -25.329,40.504 -32.554,66.546c-6.508,26.041 -10.137,55.695 -10.137,89.704l-0,232.916l-86.075,0l-0,-523.712l81.025,-0l-0,-0.729Z" style="fill:#1d1d1b;fill-rule:nonzero;"/><path d="M13925.8,1708.87l-295.871,-0l-0,-75.954l407.275,-0l-0,58.591l-319.742,389.184l334.204,-0l0,75.958l-441.266,0l-0,-65.833l315.396,-381.946l0.004,-0Z" style="fill:#1d1d1b;fill-rule:nonzero;"/><path d="M14224.5,1433.99l-0,276.321l2.166,-0.001c6.513,-15.904 15.921,-29.654 28.213,-41.233c12.308,-10.85 26.042,-20.242 41.233,-27.483c15.192,-7.238 31.113,-12.292 47.742,-15.921c16.65,-3.608 32.554,-5.05 48.475,-5.05c34.721,-0 62.933,4.342 86.075,14.462c23.158,10.121 41.233,22.43 55.712,39.792c14.463,16.629 23.871,36.892 29.65,60.033c5.784,23.142 8.684,49.184 8.684,77.396l-0,344.342l-86.079,0l-0,-354.463c-0,-32.554 -9.409,-57.866 -28.209,-76.683c-18.821,-18.804 -44.862,-28.212 -78.125,-28.212c-26.041,-0 -49.204,4.337 -68.004,12.308c-19.533,7.95 -35.454,19.533 -48.475,34.721c-13.021,15.192 -22.412,32.554 -28.921,52.083c-6.512,20.246 -9.412,41.946 -9.412,65.104l-0,295.85l-86.075,0l-0,-723.366l85.35,-0Z" style="fill:#1d1d1b;fill-rule:nonzero;"/><path d="M15072.3,2123.37c-39.066,29.654 -88.266,44.845 -147.57,44.845c-41.963,0 -78.125,-6.512 -108.509,-20.245c-30.383,-13.75 -56.425,-32.55 -77.412,-56.421c-20.971,-24.6 -36.892,-53.542 -47.013,-86.809c-10.121,-33.279 -16.633,-70.9 -18.091,-110.675c-0,-39.791 5.8,-76.683 18.091,-109.237c12.292,-33.279 28.942,-61.492 51.354,-86.075c21.7,-24.6 47.742,-43.404 78.125,-56.425c30.38,-13.75 62.934,-20.258 99.113,-20.258c46.287,-0 85.35,9.408 115.729,28.941c30.383,19.529 55.713,43.4 73.788,73.054c18.816,29.65 31.108,62.205 38.35,96.925c7.22,35.455 10.12,68.734 8.679,100.559l-392.084,-0c-0.712,23.141 2.171,44.841 7.967,65.104c5.783,20.258 15.904,39.062 29.654,54.979c13.75,15.904 30.384,28.213 51.354,37.604c20.992,9.413 45.575,14.484 73.788,14.484c36.179,-0 66.558,-8.684 89.704,-25.334c23.142,-16.629 38.333,-42.671 46.3,-76.666l85.35,-0c-12.292,57.866 -37.604,101.995 -76.667,131.65Zm-20.991,-336.371c-7.95,-18.092 -18.071,-33.992 -31.092,-47.013c-13.021,-13.021 -28.942,-23.875 -46.304,-31.112c-18.092,-7.95 -37.621,-11.579 -59.321,-11.579c-22.417,-0 -42.675,3.629 -60.037,11.579c-17.359,7.95 -33.28,18.091 -46.3,31.821c-13.021,13.75 -23.142,28.941 -30.384,47.033c-7.221,18.071 -11.562,36.892 -13.021,57.133l300.938,0c-2.171,-20.241 -6.513,-39.77 -14.479,-57.862Z" style="fill:#1d1d1b;fill-rule:nonzero;"/><path d="M15250.3,1538.87l-0,-105.609l86.075,0l-0,105.609l-86.075,-0Zm86.075,94.046l-0,523.733l-86.075,0l-0,-523.733l86.075,-0Z" style="fill:#1d1d1b;fill-rule:nonzero;"/><path d="M15551.2,1632.92l0,77.395l2.171,0c39.063,-59.304 95.484,-88.975 169.271,-88.975c32.55,0 61.492,6.509 88.246,20.259c26.042,13.75 44.858,36.162 55.708,68.716c17.363,-28.212 40.504,-50.624 69.446,-65.816c28.925,-15.192 60.038,-23.159 94.758,-23.159c26.042,0 49.913,2.896 71.613,8.68c20.975,5.8 39.792,14.479 54.983,26.771c15.192,12.291 26.754,28.212 35.434,47.012c8.683,19.533 12.308,42.692 12.308,69.446l-0,384.112l-86.092,0l0,-343.591c0,-15.921 -1.441,-31.113 -4.341,-45.575c-2.88,-14.479 -7.95,-26.771 -15.192,-36.892c-7.221,-10.137 -18.071,-18.817 -31.092,-24.6c-13.021,-5.779 -30.383,-9.408 -51.371,-9.408c-42.675,-0 -75.954,12.308 -100.537,36.179c-24.604,23.871 -36.183,56.425 -36.183,96.929l-0,326.25l-86.075,0l-0,-343.612c-0,-16.634 -1.442,-32.555 -4.342,-46.305c-2.896,-14.458 -8.679,-26.75 -15.917,-36.891c-7.225,-10.121 -17.362,-18.8 -29.654,-24.584c-12.292,-5.795 -28.212,-8.679 -48.471,-8.679c-24.587,0 -46.287,5.05 -64.375,15.192c-18.091,10.121 -32.554,22.412 -43.404,36.162c-10.85,14.463 -19.533,28.942 -24.6,44.134c-5.054,15.187 -7.954,28.208 -7.954,38.333l-0,326.25l-86.075,0l-0,-523.733l81.737,-0Z" style="fill:#1d1d1b;fill-rule:nonzero;"/><rect x="16319.5" y="1834.74" width="292.971" height="81.025" style="fill:#1d1d1b;"/><path d="M17241,1433.99l-0,81.008l-402.917,0l0,230.033l375.433,0l0,81.025l-375.433,0l0,250.296l405.817,0l-0,81.004l-502.034,0l0,-723.366l499.134,-0Z" style="fill:#1d1d1b;fill-rule:nonzero;"/><path d="M17427.6,1632.92l0,83.191l2.171,0c36.179,-63.662 92.604,-95.483 170,-95.483c34.721,-0 62.934,4.337 86.075,14.462c23.163,10.121 41.234,22.43 55.713,39.792c14.462,16.629 23.871,36.892 29.654,60.034c5.779,23.141 8.679,49.183 8.679,77.395l0,344.342l-86.075,0l0,-354.463c0,-32.554 -9.412,-57.866 -28.212,-76.683c-18.821,-18.804 -44.863,-28.212 -78.125,-28.212c-26.042,-0 -49.205,4.337 -68.005,12.308c-19.533,7.95 -35.45,19.533 -48.47,34.721c-13.021,15.192 -22.417,32.554 -28.925,52.083c-6.513,20.246 -9.409,41.946 -9.409,65.104l0,295.85l-86.079,0l0,-523.712l81.008,-0l0,-0.729Z" style="fill:#1d1d1b;fill-rule:nonzero;"/><path d="M18182.8,1708.87l-295.85,-0l0,-75.954l407.259,-0l-0.004,58.591l-319.738,389.184l334.2,-0l0,75.958l-441.25,0l0,-65.833l315.383,-381.946Z" style="fill:#1d1d1b;fill-rule:nonzero;"/><path d="M18486.6,1433.99l0,428.229l238.713,-228.575l115.745,-0l-207.604,190.242l222.796,333.47l-109.233,0l-179.396,-273.437l-81.021,75.246l0,198.191l-86.079,0l-0,-723.366l86.079,-0Z" style="fill:#1d1d1b;fill-rule:nonzero;"/><path d="M18999.7,1632.92l-0,110.675l2.171,-0c20.97,-42.671 46.3,-73.784 76.683,-94.046c30.379,-20.242 68.712,-29.65 115.729,-28.208l0,91.145c-34.725,0 -63.646,5.067 -88.25,14.48c-24.6,9.391 -44.129,23.141 -58.592,41.229c-14.462,18.075 -25.312,40.504 -32.554,66.546c-6.508,26.041 -10.121,55.695 -10.121,89.704l0,232.916l-86.091,0l-0,-523.712l81.025,-0l-0,-0.729Z" style="fill:#1d1d1b;fill-rule:nonzero;"/><path d="M19610.8,2123.37c-39.063,29.654 -88.246,44.845 -147.567,44.845c-41.946,0 -78.125,-6.512 -108.508,-20.245c-30.383,-13.75 -56.425,-32.55 -77.396,-56.421c-20.971,-24.6 -36.892,-53.542 -47.012,-86.809c-10.142,-33.279 -16.65,-70.9 -18.092,-110.675c0,-39.791 5.779,-76.683 18.092,-109.237c12.291,-33.279 28.92,-61.492 51.354,-86.075c21.7,-24.6 47.741,-43.404 78.125,-56.425c30.379,-13.75 62.933,-20.258 99.096,-20.258c46.3,-0 85.362,9.408 115.746,28.941c30.383,19.529 55.695,43.4 73.783,73.054c18.804,29.65 31.112,62.205 38.333,96.925c7.242,35.455 10.142,68.734 8.683,100.559l-392.066,-0c-0.729,23.141 2.171,44.841 7.95,65.104c5.8,20.258 15.921,39.062 29.671,54.979c13.733,15.904 30.383,28.213 51.354,37.604c20.975,9.413 45.575,14.484 73.787,14.484c36.163,-0 66.542,-8.684 89.704,-25.334c23.142,-16.629 38.334,-42.671 46.284,-76.666l85.362,-0c-12.291,57.866 -37.621,101.995 -76.683,131.65Zm-20.242,-336.371c-7.966,-18.092 -18.091,-33.992 -31.112,-47.013c-13.021,-13.021 -28.938,-23.875 -46.3,-31.112c-18.075,-7.95 -37.604,-11.579 -59.304,-11.579c-22.434,-0 -42.692,3.629 -60.054,11.579c-17.363,7.95 -33.263,18.091 -46.284,31.821c-13.021,13.75 -23.162,28.941 -30.383,47.033c-7.238,18.071 -11.579,36.892 -13.021,57.133l300.921,0c-2.171,-20.241 -7.242,-39.77 -14.463,-57.862Z" style="fill:#1d1d1b;fill-rule:nonzero;"/><path d="M19789.6,1538.87l0,-105.609l86.075,0l0,105.609l-86.075,-0Zm86.075,94.046l0,523.733l-86.075,0l0,-523.733l86.075,-0Z" style="fill:#1d1d1b;fill-rule:nonzero;"/><path d="M20074.5,2039.46c7.95,13.02 18.804,23.87 31.825,31.091c13.021,7.242 28.208,13.021 44.842,16.65c16.65,3.613 33.283,5.054 51.37,5.054c13.734,0 27.484,-0.712 42.676,-2.883c15.191,-2.171 28.212,-5.8 41.233,-10.85c12.291,-5.071 23.141,-13.021 31.108,-23.871c7.954,-10.142 12.292,-23.875 12.292,-39.796c-0,-22.429 -8.679,-39.062 -25.313,-50.641c-16.646,-11.563 -37.621,-20.971 -63.662,-27.484c-25.313,-7.237 -52.813,-13.75 -82.463,-19.529c-29.654,-5.779 -57.154,-13.75 -82.466,-24.6c-25.313,-10.121 -46.305,-25.312 -63.663,-44.117c-16.633,-18.816 -25.312,-45.57 -25.312,-78.854c-0,-26.041 5.779,-49.183 18.087,-68c11.563,-18.804 26.754,-33.996 45.575,-46.287c18.8,-11.579 39.775,-20.259 62.933,-26.042c23.142,-5.8 46.284,-8.679 69.446,-8.679c29.65,-0 57.134,2.171 81.734,7.221c25.312,5.071 47.016,13.75 66.545,26.041c19.534,12.309 34.725,29.671 46.305,50.642c11.579,20.975 18.087,47.746 20.258,79.567l-86.092,-0c-1.441,-16.629 -5.783,-31.092 -13.021,-41.942c-7.225,-10.854 -16.633,-20.262 -28.212,-26.771c-11.563,-6.512 -23.871,-11.583 -38.333,-14.462c-14.463,-2.9 -27.484,-4.342 -41.963,-4.342c-13.021,0 -26.042,0.713 -39.062,2.883c-13.021,2.167 -25.313,5.796 -36.163,10.85c-10.85,5.067 -19.533,11.58 -26.041,20.259c-6.513,8.683 -10.121,19.533 -10.121,33.283c-0,15.192 5.05,27.483 15.9,36.892c10.141,10.121 23.875,18.071 39.791,24.583c15.921,6.513 34.725,11.579 54.984,15.921c20.241,4.337 40.504,8.679 60.762,13.75c21.704,5.05 42.675,10.121 63.646,17.358c20.992,6.513 39.067,15.904 54.983,26.754c15.921,10.85 28.942,25.33 38.334,41.963c9.412,16.633 14.479,37.621 14.479,62.933c-0,31.825 -6.509,57.867 -19.529,78.854c-13.021,20.976 -30.384,37.605 -51.371,50.626c-20.975,13.02 -44.846,21.704 -71.617,26.77c-26.754,5.071 -52.796,7.954 -79.567,7.954c-28.941,0 -56.42,-2.883 -83.191,-9.395c-26.042,-5.796 -49.917,-15.917 -70.159,-29.667c-20.258,-13.733 -36.179,-31.825 -48.47,-54.967c-12.292,-23.158 -18.805,-49.912 -20.263,-82.466l86.096,-0c-1.458,18.804 2.883,34.725 10.85,47.745Z" style="fill:#1d1d1b;fill-rule:nonzero;"/><path d="M21167.5,2123.37c-39.063,29.654 -88.246,44.845 -147.567,44.845c-41.963,0 -78.125,-6.512 -108.508,-20.245c-30.384,-13.75 -56.425,-32.55 -77.396,-56.421c-20.992,-24.6 -36.892,-53.542 -47.033,-86.809c-10.121,-33.279 -16.63,-70.9 -18.071,-110.675c-0,-39.791 5.779,-76.683 18.071,-109.237c12.312,-33.279 28.941,-61.492 51.375,-86.075c21.699,-24.6 47.741,-43.404 78.125,-56.425c30.379,-13.75 62.933,-20.258 99.095,-20.258c46.3,-0 85.363,9.408 115.746,28.941c30.384,19.529 55.696,43.4 73.784,73.054c18.804,29.65 31.095,62.205 38.333,96.925c7.242,35.455 10.125,68.734 8.683,100.559l-392.067,-0c-0.729,23.141 2.171,44.841 7.95,65.104c5.784,20.258 15.921,39.062 29.655,54.979c13.75,15.904 30.383,28.213 51.371,37.604c20.97,9.413 45.575,14.484 73.783,14.484c36.167,-0 66.546,-8.684 89.687,-25.334c23.163,-16.629 38.354,-42.671 46.304,-76.666l85.363,-0c-12.308,57.866 -37.621,101.995 -76.683,131.65Zm-20.971,-336.371c-7.971,-18.092 -18.092,-33.992 -31.113,-47.013c-13.02,-13.021 -28.937,-23.875 -46.3,-31.112c-18.075,-7.95 -37.604,-11.579 -59.304,-11.579c-22.433,-0 -42.692,3.629 -60.054,11.579c-17.362,7.95 -33.262,18.091 -46.283,31.821c-13.021,13.75 -23.163,28.941 -30.384,47.033c-7.237,18.071 -11.579,36.892 -13.021,57.133l300.921,0c-2.171,-20.241 -6.512,-39.77 -14.462,-57.862Z" style="fill:#1d1d1b;fill-rule:nonzero;"/><rect x="21359.9" y="2044.51" width="112.117" height="112.117" style="fill:#1d1d1b;"/><path d="M21811.3,2156.65l-253.905,-723.388l103.455,0l206.875,627.171l2.17,0l208.334,-627.171l100.554,0l-257.517,723.388l-109.966,0Z" style="fill:#1d1d1b;fill-rule:nonzero;"/><rect x="22129.7" y="2044.51" width="112.117" height="112.117" style="fill:#1d1d1b;"/></g><rect x="11825.1" y="2709.3" width="5792.08" height="735.679" style="fill:none;"/><g><text x="12072.3px" y="3258.45px" style="font-family:'ArialMT', 'Arial', sans-serif;font-size:506.371px;fill:#e60005;">S</text><g><text x="12415.1px" y="3258.45px" style="font-family:'ArialMT', 'Arial', sans-serif;font-size:506.371px;fill:#e60005;">T</text><text x="12691.9px" y="3258.45px" style="font-family:'ArialMT', 'Arial', sans-serif;font-size:506.371px;fill:#e60005;">A<tspan x="13034.7px 13377.5px 13523.2px 13791.1px 13936.9px 14279.7px 14678.6px 14993px 15138.7px 15481.5px " y="3258.45px 3258.45px 3258.45px 3258.45px 3258.45px 3258.45px 3258.45px 3258.45px 3258.45px 3258.45px ">BIL SOZIAL</tspan></text></g></g><path d="M17495,3444.98l-5609.1,0c-33.279,0 -60.763,-27.483 -60.763,-60.766l0.001,-614.146c-0.001,-33.284 27.483,-60.767 60.766,-60.767l5670.58,0c33.284,0 60.763,27.484 60.763,60.763l0,552.658c0,67.275 -54.25,122.258 -122.254,122.258Z" style="fill:none;fill-rule:nonzero;stroke:#e60005;stroke-width:66.5px;stroke-miterlimit:10;"/></g></g></svg>